<?xml version="1.0" encoding="UTF-8"?>
<svg id="Ebene_3" data-name="Ebene 3" xmlns="http://www.w3.org/2000/svg" viewBox="0 0 325.9 166.34">
  <defs>
    <style>
      .cls-1 {
        opacity: .4;
      }

      .cls-2 {
        fill: #fff;
        stroke-width: 0px;
      }
    </style>
  </defs>
  <g class="cls-1">
    <path class="cls-2" d="M53.09,69.87c1.73.05,3.47.17,5.2.12,1.09-.03,1.44.3,1.41,1.41-.07,2.82-.02,5.64-.02,8.71,3.09-1.67,6.12-1.87,9.22-.65,2.36.93,4.18,2.49,5.48,4.66,2.66,4.43,1.96,10.22-1.65,13.9-3.69,3.76-8.55,4.28-13.73,1.35.27,1.51-.63,1.52-1.66,1.47-1.41-.06-2.83-.03-4.25-.04,0-10.31,0-20.62,0-30.93ZM69.36,90.08c.01-3.02-2.06-5.17-4.98-5.18-2.89,0-5.08,2.21-5.08,5.14,0,2.91,2.2,5.06,5.15,5.04,2.9-.02,4.89-2.05,4.91-5Z"/>
    <path class="cls-2" d="M246.38,99.25c-.93,1.15-1.9,2.29-3.57,2.18-1.64-.1-2.8-.96-3.24-2.56-.43-1.53.09-2.84,1.37-3.72,1.35-.93,2.79-.86,4.12.13.48.36.88.84,1.32,1.26,0,.9,0,1.8,0,2.71Z"/>
    <path class="cls-2" d="M167.5,86.95c-.1,2.19-.17,4.42-.83,6.57-1.64,5.3-5.96,8.57-11.13,8.44-4.86-.12-9.1-3.6-10.27-8.43-1.57-6.5,3.1-13.12,10.4-14.73q3.54-.78,1.98-4.22c-.75-1.64-1.58-3.24-2.64-4.7-.48-.66-.51-1.09.22-1.54.6-.37,1.14-.84,1.7-1.27q2.59-1.96,4.31.89c1.79,2.99,3.18,6.17,4.2,9.5.29.95.74,1.45,1.7,1.84,8.21,3.26,12.92,11.55,11.7,20.3-.14.99-.45,1.31-1.42,1.26-1.54-.09-3.44.48-4.53-.23-1.11-.73-.11-2.71-.2-4.15-.22-3.49-1.37-6.52-3.94-8.94-.31-.29-.56-.73-1.24-.57ZM161.08,88.03c-.05-.7-.11-1.6-.17-2.5-.04-.65-.24-1.12-1.04-1.06-2.77.2-5.36.83-7.28,3.03-1.44,1.65-1.82,3.57-.87,5.56.84,1.78,2.38,2.74,4.35,2.66,2.16-.09,3.5-1.44,4.35-3.33.6-1.32.62-2.75.65-4.37Z"/>
    <path class="cls-2" d="M188.41,79.92c6.91-2.12,11.62-.79,14.62,4.05,2.71,4.37,2.1,10.21-1.44,13.92-3.7,3.87-8.57,4.44-13.87,1.48.3,1.55-.65,1.47-1.66,1.47-4.24,0-4.24.03-4.24-4.3,0-8.24.04-16.49-.03-24.73-.01-1.41.28-1.98,1.79-1.82,1.52.17,3.56-.46,4.47.32,1.08.92.28,3.01.35,4.6.07,1.65.02,3.31.02,5.01ZM198.1,89.97c-.03-3-2.15-5.11-5.09-5.06-2.86.04-5.03,2.34-4.96,5.25.07,2.91,2.29,4.99,5.26,4.92,2.88-.06,4.82-2.14,4.79-5.11Z"/>
    <path class="cls-2" d="M111.13,80.74c-.09-1.58.75-1.68,1.9-1.67,4.09.04,4.09,0,4.09,4.12,0,5.34-.03,10.67.02,16.01.01,1.18-.2,1.8-1.56,1.65-1.08-.12-2.18-.01-3.28-.03-.31,0-.87-.03-.9-.15-.55-2.19-1.54-.48-2.16-.18-5.55,2.73-12.96-1.02-14.69-7.5-2.03-7.59,3.83-14.75,11.65-14.28,1.8.11,3.32.87,4.92,2.02ZM110.8,90.05c0-2.99-2.1-5.14-5.02-5.14-2.89,0-5.04,2.22-5.02,5.17.02,2.89,2.09,4.98,4.95,5,3,.02,5.09-2.04,5.09-5.03Z"/>
    <path class="cls-2" d="M223.11,92.24c1.42,3.35,4.85,4.56,7.94,2.72,1.43-.85,1.98-.43,2.6.73.12.23.28.43.43.64q1.77,2.54-1,3.9c-6.03,2.96-13.23.47-15.83-5.46-2.62-5.98.11-13.05,5.92-15.33,7.94-3.1,15.96,3.04,14.98,11.43-.12,1.02-.46,1.41-1.55,1.39-4.44-.06-8.88-.03-13.5-.03ZM231.82,87.67c-.69-2.21-1.91-3.34-3.94-3.5-1.96-.16-3.53.51-4.53,2.28-.48.83-.4,1.26.72,1.24,2.5-.05,5.01-.01,7.75-.01Z"/>
    <path class="cls-2" d="M126.21,81.64c2.44-1.8,4.46-2.86,6.87-2.94,4.93-.15,8.64,2.97,8.91,7.91.24,4.37.09,8.76.15,13.13.01.84-.27,1.2-1.11,1.08-.06,0-.13,0-.19,0q-5.35.21-5.35-5.15c0-2.25.04-4.51-.02-6.76-.07-2.64-1.68-4.27-4.02-4.23-2.47.05-4.47,1.92-4.51,4.36-.06,3.41-.05,6.83,0,10.24.02,1.06-.08,1.69-1.41,1.56-1.65-.15-3.82.52-4.85-.31-1.09-.87-.33-3.13-.34-4.78-.05-5.02.02-10.05-.04-15.07-.02-1.2.23-1.79,1.56-1.62.82.11,1.67.05,2.51.01,1.41-.07,2.83-.2,1.84,2.55Z"/>
    <path class="cls-2" d="M84.63,81.28c3.32-2.82,6.39-3.25,9.49-1.62.87.46,1.36.9.63,1.87-.34.46-.58,1-.84,1.52-.77,1.57-1.21,3.07-3.78,1.99-2.42-1.02-4.83,1.16-4.97,4.13-.16,3.34-.12,6.7-.07,10.05.02,1.19-.21,1.8-1.57,1.65-1.65-.19-3.77.67-4.83-.35-.99-.95-.28-3.06-.29-4.66-.04-5.09.02-10.18-.04-15.27-.02-1.17.27-1.65,1.49-1.51.89.1,1.81.11,2.7,0,1.48-.18,2.41.16,2.07,2.2Z"/>
    <path class="cls-2" d="M213.88,85.32c0,4.63-.04,9.26.03,13.9.02,1.19-.21,1.79-1.55,1.63-1.64-.19-3.83.7-4.79-.37-.81-.91-.27-3.05-.28-4.65-.01-7.98.02-15.95-.03-23.93-.01-1.34.18-2.07,1.74-1.86,1.58.21,3.69-.68,4.62.38.78.89.25,2.94.26,4.48.02,3.47,0,6.95,0,10.42Z"/>
    <path class="cls-2" d="M173.87,71.36c2.07.02,3.7,1.64,3.69,3.66-.01,1.99-1.71,3.67-3.72,3.69-2.01.01-3.65-1.66-3.65-3.72,0-2.09,1.58-3.65,3.68-3.63Z"/>
  </g>
</svg>