<?xml version="1.0" encoding="UTF-8"?>
<svg id="uuid-6e46c9f4-95cc-484e-8a77-12c292345b80" data-name="Ebene 2" xmlns="http://www.w3.org/2000/svg" viewBox="0 0 248.05 113.11">
  <defs>
    <style>
      .uuid-65a0c995-3628-46b2-b835-128430353a15 {
        fill: #fff;
        opacity: .5;
      }
    </style>
  </defs>
  <g id="uuid-f2113e20-f160-4d16-935b-b15b3d6ffc99" data-name=" chamäleon">
    <path class="uuid-65a0c995-3628-46b2-b835-128430353a15" d="m75.05,44.92v8.62c1.6-.89,3.11-1.5,4.82-1.36,2.4.2,3.7,1.52,3.72,3.91.03,2.8.03,5.6,0,8.39-.02,1.64-.11,3.29.98,4.69-.17.08-.22.12-.27.12-1.97-.02-4.49.68-5.77-.27-1.21-.9-.29-3.56-.35-5.44-.07-2.22-.05-4.45,0-6.68.02-1.05-.29-1.8-1.42-1.83-1.17-.03-1.68.64-1.67,1.81.03,3.69-.03,7.38.03,11.07.02,1.03-.2,1.39-1.34,1.4-4.04.03-4.04.08-4.12-3.95,0-.16-.05-.33-.1-.69-2.83,4.04-6.7,5.75-11.37,5.47-5.95-.35-9.4-3.88-11.3-9.26-2.11-5.98.43-13.4,5.73-16.45,5.14-2.96,11.21-1.73,14.68,3.06-2.19.55-4.34,1.07-6.48,1.63-.58.15-.96.16-1.17-.52-.21-.68-.7-1.19-1.25-1.64-2.02-1.65-4.53-.78-4.81,1.78-.51,4.59.63,8.87,3.37,12.54,2.89,3.88,7.46,4.21,11.78,2.77.77-.25.94-.67.93-1.39-.02-4.83.32-9.7-.16-14.48-.23-2.25.73-2.26,2.09-2.56,1.1-.25,2.21-.48,3.43-.75Z"/>
    <path class="uuid-65a0c995-3628-46b2-b835-128430353a15" d="m108.17,53.73c1.09-.61,1.87-1.23,2.84-1.59,1.8-.66,3.4-.47,4.77.83.69.65,1.14.58,1.87.05.7-.51,1.55-.88,2.39-1.14,2.69-.83,5.33,1.11,5.34,3.9.01,3.05.02,6.11,0,9.16-.01,1.46-.02,2.91.82,4.2-.21.09-.31.17-.41.17-1.9-.06-4.36.79-5.56-.31-1.09-1.01-.26-3.48-.3-5.3-.05-2.03,0-4.07-.02-6.11-.01-1.11-.13-2.39-1.53-2.43-1.53-.04-1.71,1.33-1.73,2.47-.06,3.37-.07,6.74,0,10.11.02,1.16-.17,1.64-1.52,1.62-3.89-.05-3.89.02-3.89-3.82,0-2.8-.01-5.6,0-8.4,0-1.02-.04-2.05-1.37-2.05-1.27,0-1.74.9-1.74,2.06,0,3.5-.06,7,.03,10.5.03,1.26-.19,1.74-1.62,1.71-3.8-.08-3.8,0-3.8-3.71,0-3.24.53-6.61-.15-9.7-.64-2.88.83-2.87,2.6-3.19.43-.08.87-.16,1.28-.31,1.09-.39,1.94-.42,1.69,1.27Z"/>
    <path class="uuid-65a0c995-3628-46b2-b835-128430353a15" d="m201.2,69.14c-.19.1-.24.14-.29.14-1.92.01-4.36.74-5.6-.16-1.31-.96-.36-3.53-.43-5.39-.09-2.28-.04-4.57-.01-6.86.01-1.11-.08-2.09-1.56-2.05-1.45.04-1.52,1.04-1.52,2.13.01,3.68-.04,7.37.03,11.05.02,1.1-.33,1.35-1.39,1.36-4.06.04-4.06.08-4.06-4,0-2.92,0-5.84,0-8.76,0-.44.17-1.01-.04-1.31-1.43-2.01.15-2.01,1.44-2.26.86-.17,1.71-.45,2.58-.58.54-.08,1.36-.83,1.53.52.06.49.5.05.73-.05.7-.29,1.36-.69,2.08-.93,2.89-.96,5.49.85,5.56,3.86.03,1.33-.05,2.67.02,4,.15,3.13-.6,6.34.95,9.28Z"/>
    <path class="uuid-65a0c995-3628-46b2-b835-128430353a15" d="m184.2,60.91c-.02,4.46-2.44,7.93-6.01,8.88-5.47,1.46-10.45-3.13-10.03-9.21.34-4.89,2.65-7.5,6.76-8.5,2.72-.66,5.96.67,7.6,3.13,1.17,1.75,1.69,3.51,1.68,5.7Zm-6.18.32c0-1.71.02-3.42,0-5.13-.02-1.24-.38-2.36-1.87-2.37-1.54-.01-1.82,1.24-1.87,2.39-.09,2.09-.07,4.18-.01,6.27.04,1.44-.23,2.89.23,4.32.32.99.68,1.79,1.92,1.62,1.16-.16,1.6-.9,1.6-1.98,0-1.71,0-3.42,0-5.13Z"/>
    <path class="uuid-65a0c995-3628-46b2-b835-128430353a15" d="m143.39,69.52c-2.74-.61-4.95.52-7.1-.75-.4-.23-1.35.51-2.07.76-3.63,1.25-6.78-.49-7.49-4.19-.35-1.83.47-3.35,1.66-4.64,1.46-1.58,3.36-2.44,5.41-3.03.47-.13,1.27.09,1.23-.84-.03-.66-.16-1.22-.79-1.62-.96-.61-1.94-.56-2.92-.2-1.05.39-2.06.87-3.14,1.34.67-3,4.59-4.83,7.67-4.59,2.73.21,4.37,1.91,4.85,5.24.46,3.19.83,6.4,1.14,9.61.1.98.39,1.81,1.52,2.9Zm-8.03-10.97c-1.26.77-1.92,1.63-2.3,2.63-.7,1.87-.93,3.79.16,5.62.48.81,1.27,1.02,2.15.81.56-.13,1.16-.4,1.07-1.11-.33-2.6-.7-5.2-1.08-7.95Z"/>
    <path class="uuid-65a0c995-3628-46b2-b835-128430353a15" d="m86.42,56.43c1.74-3.72,5.88-5.51,9.2-4.32,1.89.68,2.95,2.02,3.25,3.88.57,3.56,1.05,7.14,1.44,10.73.1.91.38,1.67,1.31,2.78-2.54-.65-4.67.65-6.73-.75-.36-.25-1.37.42-2.07.69-3.37,1.26-6.3.03-7.46-3.12-.68-1.85-.21-3.5.93-4.99,1.45-1.89,3.47-2.9,5.7-3.61.54-.17,1.58.17,1.51-1-.07-1.03-.75-1.62-1.65-1.85-.72-.19-1.5-.17-2.24.18-.95.45-1.93.84-3.19,1.38Zm7.34,2.03c-.57.45-.89.65-1.14.91-1.71,1.77-2.36,4.87-1.39,6.87.47.98,1.23,1.64,2.43,1.4,1.26-.25,1.09-1.2.99-2.1-.27-2.25-.56-4.5-.88-7.08Z"/>
    <path class="uuid-65a0c995-3628-46b2-b835-128430353a15" d="m166.83,65.82c-2.04,3.98-7.59,5.26-11.28,2.67-3.09-2.16-4.28-5.3-3.87-8.94.43-3.84,2.44-6.56,6.37-7.57,4.58-1.18,8.96,2.46,8.75,7.57-.04.97-.64,1.06-1.43,1.05-2.23-.03-4.47.07-6.7-.04-1.67-.08-1.64.51-1.03,1.74,1.51,3.07,3.89,4.38,7.29,3.88.56-.08,1.12-.2,1.92-.35Zm-8.57-7.17q2.81,0,2.8-.97c-.03-1.93-1.44-3.86-2.83-3.72-1.89.19-1.63,1.69-1.82,3.01-.27,2,.98,1.76,1.85,1.69Z"/>
    <path class="uuid-65a0c995-3628-46b2-b835-128430353a15" d="m150.66,69.34c-1.75,0-3.35-.08-4.94.03-1.18.08-1.49-.28-1.47-1.47.07-6.41.03-12.82.03-19.22,0-.57.14-1.19-.03-1.7-.69-2.12.58-2.59,2.25-2.84,1-.15,1.98-.4,3.17-.64v4.88c0,5.27.02,10.53-.01,15.8-.01,1.77.02,3.51,1,5.18Z"/>
    <path class="uuid-65a0c995-3628-46b2-b835-128430353a15" d="m140.35,47.45c-.03,1.38-1.37,2.6-2.76,2.53-1.24-.06-2.57-1.44-2.52-2.62.05-1.34,1.43-2.57,2.8-2.5,1.31.06,2.51,1.31,2.48,2.59Z"/>
    <path class="uuid-65a0c995-3628-46b2-b835-128430353a15" d="m133.89,47.49c-.05,1.38-1.26,2.55-2.61,2.52-1.42-.03-2.57-1.34-2.48-2.8.09-1.45,1.19-2.4,2.68-2.35,1.4.06,2.46,1.21,2.41,2.63Z"/>
  </g>
</svg>