<?xml version="1.0" encoding="UTF-8"?>
<svg id="uuid-86d98cfb-0154-40f8-a0f9-ce38a9d44290" data-name="Ebene 2" xmlns="http://www.w3.org/2000/svg" viewBox="0 0 248.05 113.11">
  <defs>
    <style>
      .uuid-65b6e5d8-5001-4b91-80e3-c43e6881c5f1 {
        fill: #fff;
        opacity: .5;
      }
    </style>
  </defs>
  <g id="uuid-cd6578f4-f4b9-4e6a-b952-f628486a3d55" data-name="Electropapa">
    <path class="uuid-65b6e5d8-5001-4b91-80e3-c43e6881c5f1" d="m149.87,72.46c0,1.18-.12,2.37.02,3.53.21,1.7-.5,2.01-2.09,2.09-2.04.11-2.57-.57-2.42-2.5.17-2.27-.04-4.56.04-6.83.05-1.32-.23-1.77-1.75-1.99-3.83-.57-7.58.4-11.38.15-1.57-.11-2.03-.5-1.94-2.02.13-2.19-.02-4.4.05-6.6.08-2.73,1.73-4.33,4.47-4.49.39-.02.79-.02,1.19,0,2.29.04,5.16-.73,6.69.35,1.51,1.07.31,4.1.49,6.26.08.99.15,2.08,1.44,1.99,1.2-.08.71-1.21.73-1.89.06-1.73.08-3.46-.02-5.18-.08-1.28.41-1.61,1.64-1.56,2.21.09,4.43-.02,6.64.05,2.91.08,4.47,1.68,4.54,4.61.05,2.28-.05,4.56.03,6.83.04,1.21-.3,1.7-1.59,1.62-1.65-.1-3.33.07-4.98-.05-1.52-.12-1.95.46-1.81,1.88.12,1.25.02,2.51.02,3.77Zm-11.07-12.69c.19-.97-.02-1.69-1.54-1.66-1.86.03-2.44.85-2.48,2.59-.03,1.44.42,1.88,1.87,1.86,1.88-.03,2.27-1.02,2.15-2.79Zm11.07.2c.04,1.56-.5,3.14,1.93,2.91,1.34-.13,2.19-.15,2.05-1.86-.13-1.57-.04-2.88-2.27-2.96-1.9-.07-1.79.94-1.71,1.91Z"/>
    <path class="uuid-65b6e5d8-5001-4b91-80e3-c43e6881c5f1" d="m214.03,58.86c-.17,3.11-.14,5.99-2.98,7.82-.62.4-.55,1.27-.7,1.95-.45,2.09-1.13,4.09-2.17,5.97-1.92,3.47-4.93,4.94-8.85,4.76-3.63-.16-5.77-2.24-7.04-5.4-.53-1.31-.99-2.65-1.41-4-.53-1.7-.78-3.5-2.57-4.55-.47-.28-.72-1.01-.97-1.58-3.51-8.32,3.3-19.62,12.3-20.42,6.06-.54,12.96,5.23,13.99,11.74.21,1.32.27,2.66.38,3.71Zm-24.89-2.85c-.07,5.3,1.2,8.95,2.53,12.55.53,1.42,1.63,1.93,3.26,1.31,3.63-1.38,7.31-1.57,10.95.04,1.87.82,2.92-.2,3.49-1.73.57-1.54.57-3.33,1.32-4.74,2.6-4.86.49-9-1.83-13.07-1.27-2.24-3.14-2.7-5.44-1.55-1.59.79-3.07,1.12-4.7.13-2.07-1.25-4.02-.58-5.74.71-2.56,1.91-3.69,4.62-3.84,6.36Zm10.57,18.25c1.8-.03,2.95.18,3.84-.69.32-.31.8-.57.58-1.14-.28-.73-3.63-2.07-4.38-1.61-1.08.67-3.16.93-2.96,2.21.26,1.71,2.24,1.21,2.91,1.24Z"/>
    <path class="uuid-65b6e5d8-5001-4b91-80e3-c43e6881c5f1" d="m40.49,48.56c1.19,0,2.39.13,3.56-.03,2.05-.27,2.82.37,2.64,2.53-.12,1.38-.32,2-1.86,1.88-1.65-.13-3.33,0-4.99-.03-.82-.01-1.37.13-1.35,1.13.02,1.06.7,1.04,1.44,1.03.87-.02,1.74,0,2.62,0,2.26,0,2.92.95,2.35,3.15-.2.77-.67.74-1.23.74-1.03,0-2.06.05-3.09-.01-1.34-.08-2.12.03-2.15,1.81-.03,1.93,1.02,1.75,2.23,1.74,1.19,0,2.39.12,3.56-.03,2.06-.27,2.55.6,2.43,2.5-.08,1.36-.29,1.97-1.84,1.91-3.09-.11-6.18-.07-9.27-.02-1.1.02-1.54-.29-1.52-1.47.06-5.11.09-10.23.02-15.35-.02-1.34.51-1.58,1.68-1.52,1.58.08,3.17.02,4.75.02Z"/>
    <path class="uuid-65b6e5d8-5001-4b91-80e3-c43e6881c5f1" d="m114.94,57.68c0-2.6.04-5.19-.02-7.79-.02-1.03.33-1.37,1.36-1.35,2.61.05,5.23-.03,7.84.03,2.69.07,4.29,1.58,4.42,4.25.11,2.28-.04,4.56.06,6.84.06,1.32-.51,1.58-1.69,1.54-1.9-.08-3.81.07-5.7-.05-1.48-.09-2.03.42-1.82,1.86.08.54.08,1.11,0,1.65-.11.71.5,1.82-.54,2.04-1.13.25-2.37.17-3.52-.02-.61-.1-.39-.93-.39-1.46-.01-2.52,0-5.03,0-7.55,0,0,.01,0,.02,0Zm6.48-.52c1.46-.1,2.9.51,2.81-1.7-.08-1.94-.77-2.62-2.71-2.61-1.57,0-2.17.3-2.19,2.04-.03,1.92.53,2.63,2.1,2.27Z"/>
    <path class="uuid-65b6e5d8-5001-4b91-80e3-c43e6881c5f1" d="m167.68,53.79c5.01,0,4.98,0,5.05,5,.02,1.6-.62,3.41,2.1,3.96,1.02.2.39,2.25.38,3.44,0,.96-.98.7-1.49.62-4.04-.59-8.07.28-12.11.08-1.33-.07-1.8-.4-1.72-1.74.11-1.96.02-3.93.03-5.89.02-3.98,1.45-5.43,5.39-5.46.79,0,1.58,0,2.37,0Zm.68,6.24c.1-1.08.14-1.97-1.5-1.92-1.81.06-2.6.74-2.59,2.55,0,1.15.03,1.94,1.57,1.93,1.82-.02,2.67-.73,2.52-2.55Z"/>
    <path class="uuid-65b6e5d8-5001-4b91-80e3-c43e6881c5f1" d="m113.25,58.88c0,7.54-.44,7.97-8.05,7.96q-4.92,0-4.92-4.87c0-7.87.32-8.19,8.3-8.19q4.67,0,4.67,5.09Zm-6.06-.69c-1.62-.3-2.69.22-2.52,2.21.09,1.02-.39,2.25,1.52,2.16,1.65-.08,2.83-.33,2.71-2.33-.07-1.08.3-2.4-1.7-2.04Z"/>
    <path class="uuid-65b6e5d8-5001-4b91-80e3-c43e6881c5f1" d="m58.81,62.29c2.13.48,4.33.29,6.48.18,1.88-.1,1.99.74,1.96,2.21-.02,1.42,0,2.37-1.94,2.2-2.28-.2-4.59.02-6.88-.07-2.72-.11-4.16-1.64-4.24-4.35-.04-1.49-.07-2.99.01-4.48.15-2.56,1.65-4.01,4.24-4.17.87-.05,1.74-.02,2.61-.02,4.91.01,6.37,1.57,6.19,6.37-.04,1.2-.44,1.43-1.52,1.39-2.26-.07-4.53-.02-6.79-.02-.04.25-.08.5-.12.76Zm-.4-3.54c1.71.4,2.88.49,4.68-.11-1.76-.81-2.9-.94-4.68.11Z"/>
    <path class="uuid-65b6e5d8-5001-4b91-80e3-c43e6881c5f1" d="m80.95,56.2c0-1.81.11-3.62-.03-5.42-.13-1.68.27-2.3,2.15-2.29,1.87,0,2.58.47,2.31,2.34-.17,1.13-.19,2.22,1.59,2.08,1.67-.14,1.08,1.27,1.03,2.02-.06.83.8,2.33-1,2.33-2.84,0-1.4,2.07-1.6,3.22-.25,1.46.67,2.19,2.15,2.02,2.46-.27,1.49,1.57,1.68,2.67.24,1.37-.43,1.68-1.73,1.7-5.32.09-6.54-1.06-6.56-6.43,0-1.41,0-2.83,0-4.24Z"/>
    <path class="uuid-65b6e5d8-5001-4b91-80e3-c43e6881c5f1" d="m69.09,61.74c0-7.32,1.39-8.52,8.87-7.98,2.06.15,1.08,1.53,1.18,2.38.09.75.64,2.06-1.09,1.95-.63-.04-1.28.07-1.9-.02-2.16-.31-2.74.65-2.65,2.67.07,1.46.49,2.01,1.93,1.83.55-.07,1.12.06,1.66-.02,1.61-.23,2.2.29,2.15,2.01-.05,1.6-.21,2.49-2.16,2.32-2.04-.18-4.12-.13-6.17-.01-1.45.08-2.02-.35-1.85-1.83.12-1.09.02-2.2.02-3.3Z"/>
    <path class="uuid-65b6e5d8-5001-4b91-80e3-c43e6881c5f1" d="m52.07,57.57c0,2.58-.09,5.17.03,7.75.1,2.08-1.33,1.44-2.38,1.52-1.17.09-2.11.11-2.07-1.62.11-5.01.13-10.03,0-15.03-.05-2,1.16-1.58,2.29-1.62,1.24-.05,2.31-.17,2.17,1.72-.18,2.41-.04,4.85-.04,7.28Z"/>
    <path class="uuid-65b6e5d8-5001-4b91-80e3-c43e6881c5f1" d="m90.63,61.64c0-.87,0-1.73,0-2.6.04-4.1,3.14-6.45,7.05-5.24,1.49.46.59,1.86.77,2.83.14.78.1,1.61-1.14,1.51-1.85-.15-2.28.99-2.24,2.55.03,1.18,0,2.36,0,3.54,0,2.53-1.13,3.31-3.65,2.63-.72-.2-.8-.61-.8-1.2.01-1.34,0-2.67,0-4.01Z"/>
  </g>
</svg>