<?xml version="1.0" encoding="UTF-8"?>
<svg id="uuid-e1380d38-3189-415b-be34-d8975b15fb03" data-name="Ebene 2" xmlns="http://www.w3.org/2000/svg" viewBox="0 0 248.05 113.11">
  <defs>
    <style>
      .uuid-30ace33e-d63e-4409-9384-b76804eb02cd {
        fill-rule: evenodd;
        opacity: .5;
      }

      .uuid-30ace33e-d63e-4409-9384-b76804eb02cd, .uuid-6a0ab893-a8a4-4591-9951-8005f2e75750 {
        fill: #fff;
      }

      .uuid-6a0ab893-a8a4-4591-9951-8005f2e75750 {
        opacity: .55;
      }
    </style>
  </defs>
  <g id="uuid-06dd7201-53f7-4add-b3b8-79ef56f01c68" data-name="fust">
    <path class="uuid-6a0ab893-a8a4-4591-9951-8005f2e75750" d="m76.75,53.74c-.13-.06-.38-.15-.67-.15s-.54.09-.67.15c-.28.15-.38.38-.38.59s.1.44.38.59c.13.06.38.15.67.15.23,0,.46-.05.67-.15.28-.15.38-.39.38-.59s-.1-.44-.38-.59Z"/>
    <path class="uuid-6a0ab893-a8a4-4591-9951-8005f2e75750" d="m70.04,63.35h12.59v-6.71h14.71v-7.43h-14.71v-2.64h14.71v-8.57h-27.32s.01,25.35.01,25.35Zm8.98-7.37h-4.79v-.89h.52c-.29-.25-.54-.37-.57-.91-.03-.47.24-.79.41-.96.66-.64,2.16-.69,2.83-.04.28.28.38.5.38.98s-.21.66-.5.92h1.73v.89Zm-1.43.76v.89h-3.42v-.89h3.42Zm.08-5.95h-.92v-.95h.92v.95Zm-.92-11.87h.92v.95h-.92v-.95Zm-2.57,3.46c.03-.54.28-.66.57-.91h-.52v-.83h3.5c.42,0,.82.21,1.03.54.14.23.26.53.26,1.18,0,.93-.43,1.43-.98,1.43v-.93c.19,0,.38-.21.38-.62s-.28-.78-.65-.77h-.48c.29.27.5.46.5.92s-.1.71-.38.99c-.67.66-2.17.6-2.83-.04-.17-.17-.44-.49-.41-.96Zm1.18,2h2.29v.89h-2.03c-.3,0-.66.04-.66.64,0,.53.3.64.57.64h2.12v.89h-3.41v-.89h.52c-.36-.18-.57-.51-.57-.85,0-.78.33-1.31,1.18-1.31Zm-2.33,3.74h4.59v.95h-4.59v-.95Zm0,3.16h4.59v.89h-4.59v-.89Zm0,5.46h.79v.89h-.79v-.89Zm0,3.11c0-.47.23-1.07,1.07-1.47.19-.09.55-.2,1.02-.2.8,0,1.37.21,1.69.42h0c.49.31.81.83.81,1.31v2.08h-4.59v-2.14Z"/>
    <path class="uuid-6a0ab893-a8a4-4591-9951-8005f2e75750" d="m75.42,42.95c.21.11.43.16.67.17.23,0,.46-.06.67-.17.28-.16.38-.41.38-.63s-.1-.47-.38-.63c-.13-.07-.38-.17-.67-.17s-.53.1-.67.16c-.28.17-.38.41-.38.63s.1.47.38.63Z"/>
    <path class="uuid-6a0ab893-a8a4-4591-9951-8005f2e75750" d="m76.28,59.21c-.22-.11-.6-.17-.97-.16-.38,0-.77.07-1,.23-.35.24-.42.49-.42.83v.85h3.01v-.76c0-.44-.16-.78-.62-.99Z"/>
    <path class="uuid-6a0ab893-a8a4-4591-9951-8005f2e75750" d="m178.02,50v-8.43h-7.88v-4.14h-6.84l-.04.07c-1.01,1.79-4.94,5.4-7.99,7.96l-.05.04-.15,4.64h3.67v9.15c.09,1.54.96,4.13,5.77,4.13h3.11c.27-.02.59-.05.93-.07,1.79-.13,4.48-.33,6.97-.93l.09-.02,1.18-5.69h-3.55c-.15,0-.32,0-.5.02-.68.04-1.54.09-1.99-.35-.22-.21-.33-.53-.33-.96v-5.43h7.6Z"/>
    <path class="uuid-6a0ab893-a8a4-4591-9951-8005f2e75750" d="m116.26,41.5v13.21c0,1.63-1.19,2.36-2.38,2.36s-2.48-.82-2.48-2.39v-13.2l-11.79-.06-.03,13.28c0,3.34,1.03,5.53,3.23,6.88,1.97,1.21,4.86,1.75,9.36,1.75h4.22c2.24,0,5.43-.3,7.9-1.75,2.51-1.47,3.78-3.79,3.78-6.89v-13.2h-11.83Z"/>
    <path class="uuid-6a0ab893-a8a4-4591-9951-8005f2e75750" d="m154.01,52.35c-1.23-2.22-3.61-3.49-6.54-3.49h-5.07c-.62,0-.97-.14-1.16-.26-.22-.14-.34-.31-.34-.5,0-.39.52-.81,1.5-.81.05,0,5.54-.28,10.82.14h.15s0-6.12,0-6.12l-.12-.02c-.91-.15-7.44-.72-13.05-.72h0l-3.58.29c-4.63,0-7.11,3.58-7.18,7.12-.06,3.62,2.36,7.35,7.91,7.56l4.47.04c1.54.06,2.27.46,2.45.81.07.13.06.3-.04.42-.23.35-.98.64-2.13.53-4.92.22-8.57-.64-11.78-1.6l-.18-.05v6.2l.07.04c2.44,1.35,8.27,1.55,11.4,1.55.68,0,1.36,0,2.05-.03,4.7.18,8.4-1.39,10.15-4.3,1.27-2.1,1.34-4.7.19-6.78h0Z"/>
    <path class="uuid-30ace33e-d63e-4409-9384-b76804eb02cd" d="m77.03,67.47v4.85c-.02,2.13-1.65,2.97-3.5,2.97s-3.48-.84-3.5-2.97v-4.85h2.03v4.75c.03.98.52,1.59,1.47,1.59s1.44-.62,1.47-1.59v-4.75h2.03Zm3.44,3.1c.44-.53.94-.74,1.59-.74,1.1,0,1.91.74,1.91,1.92v3.57h-1.93v-3.13c-.02-.52-.14-1.08-.74-1.08-.95,0-.83,1.09-.83,1.16v3.06h-1.93v-3.96c0-.48-.01-.8-.06-1.37h1.96s.03.58.03.58Zm8.41,4.56h1.88v-7.67h-1.93v2.96h-.02c-.38-.55-1.01-.79-1.65-.79-1.51,0-2.19,1.43-2.19,2.85,0,1.33.68,2.8,2.13,2.8.72,0,1.43-.3,1.69-.94h.04s.05.79.05.79Zm-1-4.13c.84,0,.94.95.94,1.66s-.15,1.66-.94,1.66-.94-.96-.94-1.66.1-1.66.94-1.66Zm12.7,2.05c0-1.99-.66-3.23-2.73-3.23-1.53,0-2.74.96-2.74,2.64,0,2.09.81,3.01,2.85,3.01.6,0,1.17-.12,1.61-.41.49-.3.9-.8.96-1.49h-1.79c-.07.5-.41.76-.94.76-.72,0-.89-.59-.88-1.28h3.65,0Zm-3.78-1.21c.05-.61.21-1.1.88-1.14.29-.02.52.12.67.34.15.22.23.51.23.8h-1.79,0Zm7.49-.22c0-.18-.03-.34-.12-.45-.1-.12-.26-.19-.53-.19-.28,0-.46.17-.46.48,0,.39.78.37,1.99.76.61.2,1.02.59,1.02,1.47,0,1.41-1.27,1.77-2.44,1.77-1.25,0-2.47-.27-2.46-1.89h1.83c-.03.17.02.35.13.48.11.14.27.24.46.24.38,0,.65-.15.65-.49,0-.95-3.01-.38-3.01-2.32,0-1.32,1.34-1.68,2.35-1.68,1.21,0,2.32.33,2.4,1.81,0,0-1.83,0-1.83,0Zm6.71,3.63v-4.06h-.95v-1.27h.97c-.06-1.78.39-2.46,2.12-2.46.35,0,.69.05,1.03.13v1.26c-.17-.05-.37-.12-.54-.12-.65,0-.73.59-.71,1.19h1.19v1.27h-1.19v4.06h-1.93Zm7.62-.69c-.44.53-.94.74-1.59.74-1.1,0-1.91-.74-1.91-1.92v-3.57h1.93v3.13c.02.52.14,1.08.74,1.08.95,0,.83-1.09.83-1.16v-3.06h1.93v3.96c0,.48.01.8.06,1.37h-1.96l-.03-.58h0Zm5.25-4c.44-.53.94-.74,1.59-.74,1.1,0,1.91.74,1.91,1.92v3.57h-1.93v-3.13c-.02-.52-.14-1.08-.74-1.08-.95,0-.83,1.09-.83,1.16v3.06h-1.93v-3.96c0-.48,0-.8-.06-1.37h1.96l.03.58h0Zm6.75,1.61l1.75-2.36h2.1l-1.72,2.24,1.98,3.09h-2.28s-1.83-2.97-1.83-2.97Zm-1.97,2.95h1.93v-7.67h-1.93v7.67Zm7.2-5.21v-.81l1.93-.76v1.57h1.12v1.27h-1.12v2.11c0,.14-.08.83.36.83.25,0,.52,0,.74-.03v1.2c-.34.07-.69.11-1.04.11-1.31,0-2.1-.19-2-1.83v-2.39h-.99v-1.27h.99Zm4.08-1.03h1.95v-1.42h-1.95v1.42h0Zm0,6.27h1.93v-5.33h-1.93v5.33h0Zm6.06-5.33c-1.59,0-2.96.86-2.96,2.83s1.37,2.83,2.96,2.83,2.96-.86,2.96-2.83-1.37-2.83-2.96-2.83m-.99,2.84c0-.75.17-1.66.98-1.66s.98.9.98,1.66-.17,1.66-.98,1.66-.98-.9-.98-1.66m7.06-2.09c.44-.53.94-.74,1.59-.74,1.1,0,1.91.74,1.91,1.92v3.57h-1.93v-3.13c-.02-.52-.14-1.08-.74-1.08-.95,0-.83,1.09-.83,1.16v3.06h-1.93v-3.96c0-.48,0-.8-.06-1.37h1.96l.03.58Zm4.78-1.68h1.95v-1.42h-1.95v1.42Zm0,6.27h1.93v-5.33h-1.93v5.33Zm8.57-2.1c0-1.99-.66-3.23-2.73-3.23-1.53,0-2.74.96-2.74,2.64,0,2.09.81,3.01,2.85,3.01.6,0,1.17-.12,1.61-.41.49-.3.9-.8.96-1.49h-1.79c-.07.5-.41.76-.94.76-.72,0-.89-.59-.88-1.28h3.65Zm-3.78-1.21c.05-.61.21-1.1.88-1.14.29-.02.52.12.67.34.15.22.23.51.23.8h-1.78Zm6.78-.86h.02c.22-.88.85-1.18,1.7-1.16v1.71c-.14-.01-.27-.01-.41-.01-1.01.01-1.35.64-1.32,1.66v2.13h-1.93v-3.96c0-.48,0-.8-.06-1.37h1.96l.03,1Zm2.95-1.06v-.81l1.93-.76v1.57h1.12v1.27h-1.12v2.11c0,.14-.08.83.37.83.25,0,.52,0,.74-.03v1.2c-.34.07-.69.11-1.03.11-1.31,0-2.1-.19-2-1.83v-2.39h-.99v-1.27h.99Zm4.08,5.33h1.83v-1.59h-1.83v1.59Z"/>
  </g>
</svg>