<?xml version="1.0" encoding="UTF-8"?>
<svg id="Ebene_3" data-name="Ebene 3" xmlns="http://www.w3.org/2000/svg" width="114.97mm" height="58.68mm" viewBox="0 0 325.9 166.34">
  <defs>
    <style>
      .cls-1 {
        fill-rule: evenodd;
      }

      .cls-1, .cls-2 {
        fill: #fff;
        opacity: .4;
        stroke-width: 0px;
      }
    </style>
  </defs>
  <path class="cls-2" d="M210.44,80.41h3.2s.68,0,1.26-.19c.39-.1.87-.49.87-.49l1.16-.87h-5.15c1.36-4.95,4.17-9.61,8.25-12.81s9.81-4.95,14.56-1.94c.68.49,1.07.58,1.75,0,.71-.52,1.42-1.04,2.14-1.55.68-.49,1.94-1.16,2.04-2.04,0-1.07-2.62-1.75-3.59-1.94-1.84-.49-3.69-.58-5.53-.39-3.69.39-7.18,1.94-10.19,4.17-5.82,4.37-9.81,11.07-11.46,18.06h.69Z"/>
  <path class="cls-2" d="M208.89,88.75c.29,5.15,2.04,10.48,5.92,13.98,3.88,3.59,9.22,4.56,14.27,3.2,9.61-2.52,16.41-11.94,18.83-21.16.97-3.98,1.26-8.25.49-12.23-.29-1.84-.87-3.69-1.65-5.34-.49-.97-1.26-3.49-2.72-2.52l-4.56,3.4c-.78.68-.58,1.36-.29,2.23.39,1.23.68,2.46.87,3.69.29,2.62.1,5.24-.58,7.86-1.16,4.76-3.69,9.32-7.28,12.72-3.49,3.3-8.45,5.63-13.3,4.17-4.66-1.46-7.18-6.12-7.86-10.68-.1-1.26-.1-2.43-.1-3.59-2.14.68-1.94,1.46-2.04,3.98"/>
  <path class="cls-2" d="M46.37,67.88h2.43c.32,0,.45.16.39.49l-2.14,12.14h5.34c.32,0,.49.16.49.49l-.39,2.14c-.06.32-.26.49-.58.49h-8.25c-.32,0-.49-.16-.49-.49l2.62-14.76c.06-.32.26-.49.58-.49h0Z"/>
  <path class="cls-2" d="M53.56,83.12l1.94-11.36c.06-.32.26-.49.58-.49h2.23c.32,0,.49.16.49.49l-2.04,11.36c-.06.32-.26.49-.58.49h-2.23c-.32,0-.45-.16-.39-.49ZM55.89,69.53l.39-2.14c.06-.32.23-.49.49-.49h2.43c.32,0,.45.16.39.49l-.39,2.14c-.06.32-.26.49-.58.49h-2.33c-.32,0-.45-.16-.39-.49h-.01Z"/>
  <path class="cls-2" d="M61.32,74.1h-1.07c-.32,0-.45-.16-.39-.49l.29-1.84c.06-.32.26-.49.58-.49h1.07l.49-2.91c.06-.32.26-.49.58-.49h2.33c.26,0,.39.16.39.49l-.49,2.91h1.75c.32,0,.45.16.39.49l-.29,1.84c-.06.32-.26.49-.58.49h-1.84l-.87,5.44c-.13.39-.06.71.19.97.19.19.58.29,1.16.29h.49c.26,0,.39.16.39.49l-.39,1.84c-.06.32-.23.49-.49.49h-.87c-1.42,0-2.46-.39-3.11-1.16-.65-.71-.84-1.75-.58-3.11l.87-5.24h0Z"/>
  <path class="cls-2" d="M69.29,74.1h-1.07c-.32,0-.45-.16-.39-.49l.29-1.84c.06-.32.26-.49.58-.49h1.07l.49-2.91c.06-.32.26-.49.58-.49h2.23c.32,0,.49.16.49.49l-.58,2.91h1.84c.32,0,.45.16.39.49l-.29,1.84c-.06.32-.26.49-.58.49h-1.84l-.87,5.44c-.13.39-.06.71.19.97.19.19.58.29,1.16.29h.49c.26,0,.39.16.39.49l-.39,1.84c-.06.32-.23.49-.49.49h-.87c-1.42,0-2.46-.39-3.11-1.16-.65-.71-.84-1.75-.58-3.11l.87-5.24h0Z"/>
  <path class="cls-2" d="M75.21,83.12l2.72-15.73c.06-.32.26-.49.58-.49h2.33c.26,0,.39.16.39.49l-2.82,15.73c-.06.32-.26.49-.58.49h-2.23c-.32,0-.45-.16-.39-.49Z"/>
  <path class="cls-1" d="M88.9,83.61h-3.3c-1.49,0-2.65-.45-3.49-1.36s-1.13-2.04-.87-3.4l.58-3.01c.26-1.49.81-2.65,1.65-3.49.91-.84,2.07-1.26,3.49-1.26s2.62.45,3.4,1.36c.84.91,1.13,2.04.87,3.4l-.39,2.14c-.06.26-.26.39-.58.39h-5.73l-.1.68c-.13.52-.06.94.19,1.26.26.32.68.49,1.26.49h3.49c.32,0,.45.16.39.49l-.29,1.84c-.06.32-.26.49-.58.49v-.02ZM86.76,73.71c-.45,0-.84.16-1.16.49-.32.33-.52.71-.58,1.16l-.19.87h3.2l.19-.78c.06-.52-.03-.94-.29-1.26-.19-.32-.58-.49-1.16-.49h0Z"/>
  <path class="cls-2" d="M104.04,78.76c-.26,1.49-.84,2.65-1.75,3.49-.91.91-2.1,1.36-3.59,1.36h-2.62c-.32,0-.45-.16-.39-.49l.39-2.14c.06-.32.23-.49.49-.49h2.43c.91,0,1.46-.61,1.65-1.84l1.84-10.29c.06-.32.26-.49.58-.49h2.43c.32,0,.45.16.39.49l-1.84,10.39h-.01Z"/>
  <path class="cls-1" d="M112,71.09c1.49,0,2.69.45,3.59,1.36.84.91,1.16,2.04.97,3.4l-.58,3.3c-.58,3.11-2.36,4.66-5.34,4.66-1.49,0-2.65-.45-3.49-1.36-.84-.84-1.16-1.97-.97-3.4l.58-3.2c.58-3.17,2.33-4.76,5.24-4.76ZM111.9,73.8c-.45,0-.84.16-1.16.49-.32.39-.55.84-.68,1.36l-.58,3.59c-.13.58-.06,1.04.19,1.36.19.32.58.49,1.16.49.45,0,.84-.16,1.16-.49.32-.39.55-.84.68-1.36l.58-3.59c.13-.58.06-1.04-.19-1.36-.26-.32-.65-.49-1.16-.49Z"/>
  <path class="cls-2" d="M121.81,75.75l-1.26,7.38c-.06.32-.26.49-.58.49h-2.23c-.32,0-.49-.16-.49-.49l2.82-15.73c.06-.32.26-.49.58-.49h2.23c.32,0,.45.16.39.49l-.78,4.76c.78-.71,1.68-1.07,2.72-1.07,1.16,0,2.04.42,2.62,1.26s.78,1.84.58,3.01l-1.36,7.77c-.06.32-.26.49-.58.49h-2.33c-.32,0-.45-.16-.39-.49l1.26-7.48c.13-.52.1-.94-.1-1.26-.26-.32-.61-.49-1.07-.49-.52,0-.97.16-1.36.49-.32.32-.55.78-.68,1.36h0Z"/>
  <path class="cls-2" d="M133.94,75.75l-1.36,7.38c0,.32-.16.49-.49.49h-2.33c-.32,0-.45-.16-.39-.49l2.04-11.36c0-.32.16-.49.49-.49h1.94c.32,0,.49.16.49.49v.68c.78-.91,1.72-1.36,2.82-1.36,1.29,0,2.23.42,2.82,1.26.58.78.74,1.81.49,3.11l-1.36,7.67c-.06.32-.23.49-.49.49h-2.33c-.32,0-.45-.16-.39-.49l1.26-7.48c.19-1.16-.23-1.75-1.26-1.75-.52,0-.94.16-1.26.49-.39.32-.61.78-.68,1.36h0Z"/>
  <path class="cls-1" d="M159.38,71.38c0,2.07-1,3.46-3.01,4.17,1.42.58,2.14,1.62,2.14,3.11s-.52,2.69-1.55,3.59c-.97.91-2.3,1.36-3.98,1.36h-6.02c-.32,0-.49-.16-.49-.49l2.62-14.76c.06-.32.26-.49.58-.49h5.24c1.29,0,2.36.32,3.2.97.84.65,1.26,1.49,1.26,2.52v.02ZM155.11,78.66c0-.52-.16-.94-.49-1.26-.32-.26-.74-.39-1.26-.39h-2.43l-.68,3.88h2.33c.78,0,1.39-.23,1.84-.68.45-.39.68-.91.68-1.55h.01ZM155.88,72.06c0-.97-.58-1.46-1.75-1.46h-2.04l-.68,3.59h2.14c.71,0,1.26-.19,1.65-.58.45-.32.68-.84.68-1.55Z"/>
  <path class="cls-2" d="M159.96,83.12l2.04-11.36c0-.32.16-.49.49-.49h2.33c.32,0,.45.16.39.49l-2.04,11.36c0,.32-.16.49-.49.49h-2.33c-.32,0-.45-.16-.39-.49ZM162.29,69.53l.39-2.14c.06-.32.26-.49.58-.49h2.33c.32,0,.45.16.39.49l-.39,2.14c0,.32-.16.49-.49.49h-2.43c-.32,0-.45-.16-.39-.49h0Z"/>
  <path class="cls-2" d="M174.91,83.61h-2.33c-.32,0-.55-.16-.68-.49l-1.94-5.63-.97,5.63c-.06.32-.23.49-.49.49h-2.33c-.32,0-.45-.16-.39-.49l2.82-15.73c0-.32.16-.49.49-.49h2.33c.32,0,.45.16.39.49l-1.55,8.74,3.59-4.47c.13-.26.36-.39.68-.39h2.52c.13,0,.23.06.29.19,0,.13-.03.23-.1.29l-4.17,5.05,2.23,6.12c.06.19.06.36,0,.49s-.19.19-.39.19h0Z"/>
  <path class="cls-1" d="M184.52,83.61h-3.2c-1.55,0-2.75-.45-3.59-1.36-.78-.91-1.04-2.04-.78-3.4l.49-3.01c.26-1.49.84-2.65,1.75-3.49s2.07-1.26,3.49-1.26,2.56.45,3.4,1.36c.78.91,1.04,2.04.78,3.4l-.39,2.14c0,.26-.16.39-.49.39h-5.82l-.1.68c-.06.52,0,.94.19,1.26.26.32.68.49,1.26.49h3.49c.32,0,.45.16.39.49l-.29,1.84c-.06.32-.26.49-.58.49v-.02ZM182.48,73.71c-.52,0-.94.16-1.26.49-.26.32-.45.71-.58,1.16l-.1.87h3.2l.1-.78c.13-.52.06-.94-.19-1.26-.26-.32-.65-.49-1.16-.49h0Z"/>
  <path class="cls-2" d="M188.4,75.07c0-1.04.42-1.91,1.26-2.62.78-.78,1.94-1.16,3.49-1.16h3.59c.32,0,.45.16.39.49l-.29,1.75c-.06.32-.26.49-.58.49h-3.49c-.84,0-1.26.26-1.26.78,0,.32.29.58.87.78l1.46.49c1.81.65,2.72,1.75,2.72,3.3,0,1.29-.42,2.33-1.26,3.11-.78.78-1.97,1.16-3.59,1.16h-4.08c-.32,0-.45-.16-.39-.49l.29-1.75c.06-.32.26-.49.58-.49h3.69c.58,0,1-.06,1.26-.19.26-.19.39-.45.39-.78,0-.45-.32-.81-.97-1.07l-1.75-.58c-1.55-.58-2.33-1.65-2.33-3.2v-.02Z"/>
  <path class="cls-1" d="M107.34,97.49c0,.06-.06.1-.19.1h-.68c-.13,0-.19-.03-.19-.1l.68-3.49c.1-.58-.19-.97-.87-.97-.58,0-1.07.39-1.16,1.07l-.68,3.4c0,.06-.03.1-.1.1h-.78c-.06,0-.1-.03-.1-.1l.87-5.15c0-.13.06-.19.19-.19h.58c.06,0,.1.06.1.19v.39c.39-.45.87-.68,1.46-.68,1.07,0,1.65.87,1.46,1.94l-.58,3.49h-.01ZM102.78,91.38h-.78c-.06,0-.1-.06-.1-.19l.1-.78c.06-.13.13-.19.19-.19h.78c.1,0,.19.1.1.19l-.1.78c0,.13-.06.19-.19.19ZM102.58,92.25c.1,0,.19,0,.19.1l-.97,5.15c0,.13-.06.19-.19.19h-.68c-.06,0-.1-.06-.1-.19l.87-5.15c0-.06.06-.1.19-.1h.69ZM100.06,95.06c0,.13-.06.19-.19.19h-2.91v.49c-.1.58.1,1.07.87,1.07h1.55c.06,0,.1.03.1.1l-.1.58c0,.13-.06.19-.19.19h-1.46c-1.26,0-2.04-.87-1.84-2.04l.29-1.46c.19-1.26.97-2.04,2.23-2.04s2.04.78,1.84,2.04l-.19.87h0ZM98.31,92.93c-.58,0-.97.49-1.16,1.07l-.1.49h2.14v-.39c.1-.68-.1-1.16-.87-1.16h-.01ZM94.82,95.36c-.29,1.36-1.07,2.33-2.82,2.33h-2.23c-.13,0-.16-.06-.1-.19l1.16-6.7c0-.13.06-.19.19-.19h2.14c1.46,0,2.23.97,2.04,2.33l-.39,2.43h0ZM92.97,91.67h-1.16l-.97,5.15h1.36c.87,0,1.36-.58,1.55-1.46l.39-2.33c.19-.78-.19-1.36-1.16-1.36h0Z"/>
  <path class="cls-1" d="M156.17,99.63h-1.65c-.06,0-.1-.06-.1-.19l.1-.49c0-.13.06-.19.19-.19h1.55c.58,0,.97-.39,1.07-.97l.1-.78c-.29.29-.68.49-1.26.49-1.16,0-1.65-.78-1.46-1.94l.19-1.46c.19-1.26.87-2.04,2.04-2.04.49,0,1.07.29,1.36.68l.1-.39c.06-.13.13-.19.19-.19h.58c.1,0,.19.1.19.19l-.97,5.44c-.19,1.16-.97,1.84-2.23,1.84h0ZM157.05,93.03c-.58,0-.97.39-1.07.97l-.29,1.55c-.1.58.19,1.07.87,1.07.58,0,1.07-.49,1.16-1.07l.29-1.46c.1-.58-.19-1.07-.97-1.07h0ZM153.16,97.49c-.06.06-.13.1-.19.1h-.68c-.13,0-.19-.03-.19-.1l.58-3.49c.1-.58-.1-.97-.78-.97s-1.07.39-1.26,1.07l-.58,3.4c0,.06-.06.1-.19.1h-.68c-.13,0-.16-.03-.1-.1l.87-5.15c0-.13.06-.19.19-.19h.58c.06,0,.1.06.1.19v.39c.39-.45.87-.68,1.46-.68,1.07,0,1.65.87,1.46,1.94l-.58,3.49h0ZM148.6,91.38h-.78c-.13,0-.16-.06-.1-.19l.1-.78c.06-.13.13-.19.19-.19h.78c.1,0,.1.1.1.19l-.1.78c-.06.13-.13.19-.19.19ZM148.41,92.25c.1,0,.19,0,.1.1l-.87,5.15c0,.13-.06.19-.19.19h-.68c-.13,0-.19-.06-.19-.19l.97-5.15c0-.06.06-.1.19-.1h.68,0ZM145.79,93.12h-1.55c-.58,0-.87.19-.87.58,0,.19.1.39.49.49l.78.29c.68.29,1.16.68,1.16,1.36,0,1.07-.78,1.84-2.14,1.84h-1.75c-.13,0-.16-.06-.1-.19v-.49c.06-.13.16-.19.29-.19h1.65c.68,0,.97-.29.97-.78,0-.29-.1-.49-.49-.58l-.87-.29c-.58-.19-.97-.68-.97-1.36,0-.87.58-1.55,1.94-1.55h1.65c.06,0,.1.03.1.1l-.1.58c0,.13-.06.19-.19.19ZM140.35,97.69h-.58c-.06,0-.1-.06-.1-.19v-.39c-.39.49-.78.68-1.36.68-1.16,0-1.75-.87-1.55-1.94l.29-1.75c.19-1.16.78-1.94,2.04-1.94.49,0,1.07.19,1.36.58l.1-.39c0-.06.06-.1.19-.1h.58c.13,0,.16.03.1.1l-.87,5.15c0,.13-.06.19-.19.19h0ZM139.18,93.03c-.58,0-.97.49-1.07,1.07l-.29,1.75c-.19.58.1.97.78.97s1.07-.39,1.16-1.07l.39-1.65c.1-.58-.29-1.07-.97-1.07ZM135.88,95.06c0,.13-.06.19-.19.19h-2.82l-.1.49c-.1.58.19,1.07.97,1.07h1.46c.13,0,.16.03.1.1l-.1.58c0,.13-.06.19-.19.19h-1.36c-1.36,0-2.04-.87-1.84-2.04l.19-1.46c.29-1.26,1.07-2.04,2.33-2.04,1.16,0,1.94.78,1.75,2.04l-.19.87h-.01ZM134.23,92.93c-.68,0-1.07.49-1.16,1.07l-.1.49h2.04l.1-.39c.1-.68-.19-1.16-.87-1.16h0ZM129.96,97.69h-.68c-.13,0-.19-.06-.19-.19l1.26-7.09c.06-.13.13-.19.19-.19h.78c.06,0,.1.06.1.19l-1.26,7.09c0,.13-.06.19-.19.19h0ZM128.41,95.06c0,.13-.06.19-.19.19h-2.82l-.1.39c-.1.68.19,1.07.87,1.07h1.55c.06.06.1.13.1.19l-.1.58c0,.13-.06.19-.19.19h-1.46c-1.26,0-2.04-.87-1.84-2.04l.29-1.46c.19-1.26.97-2.04,2.23-2.04s2.04.78,1.84,2.04l-.19.87v.02ZM126.66,92.93c-.58,0-.97.49-1.16,1.07v.49h2.04v-.49c.1-.58-.1-1.07-.87-1.07h0ZM121.9,94.68l1.46,2.72c.1.19,0,.29-.1.29h-.78c-.06,0-.13-.06-.19-.19l-1.46-2.62-.39,2.62c-.06.13-.13.19-.19.19h-.78c-.06,0-.1-.06-.1-.19l1.26-7.18c0-.06.06-.1.19-.1h.68c.1,0,.19,0,.19.1l-.78,4.08,2.14-2.04c.06-.13.16-.19.29-.19h.78c.1,0,.1.1.1.19l-2.33,2.33h0ZM118.89,91.38h-.78c-.06,0-.1-.03-.1-.1l.1-.87c.06-.13.13-.19.19-.19h.78c.1,0,.19.1.1.19l-.1.87c0,.06-.06.1-.19.1ZM118.7,92.25c.1,0,.19.1.19.19l-.97,5.05c0,.13-.06.19-.19.19h-.68c-.06,0-.1-.06-.1-.19l.87-5.05c0-.13.06-.19.19-.19h.69ZM115.01,94.09c.58.19.97.78.97,1.36,0,1.36-.97,2.23-2.43,2.23h-2.52c-.06,0-.1-.06-.1-.19l1.16-6.7c0-.06.06-.1.19-.1h2.14c1.16,0,1.94.58,1.94,1.55s-.49,1.55-1.36,1.84h0ZM112.1,96.81h1.36c.87,0,1.46-.49,1.46-1.36,0-.49-.39-.87-.97-.87h-1.46l-.39,2.23ZM114.23,91.57h-1.16l-.39,2.04h1.26c.78,0,1.36-.49,1.36-1.16,0-.58-.39-.87-1.07-.87h0Z"/>
  <path class="cls-1" d="M194.04,94.19l-.19.87c0,.06-.06.1-.19.1h-2.82l-.1.49c-.1.68.19,1.07.87,1.07h1.55c.06,0,.1.06.1.19l-.1.58c0,.06-.06.1-.19.1h-1.46c-1.26,0-2.04-.78-1.84-1.94l.29-1.46c.19-1.36.97-2.14,2.23-2.14s2.04.87,1.84,2.14h.01ZM192.19,92.93c-.68,0-1.07.49-1.16,1.07l-.1.49h2.04l.1-.49c.1-.58-.19-1.07-.87-1.07h0ZM189.28,93.03h-1.07l-.58,2.91c-.1.49.19.78.78.78h.19c.13,0,.19.06.19.19l-.1.58c-.06.06-.13.1-.19.1h-.29c-1.16,0-1.75-.58-1.55-1.75l.49-2.82h-.68c-.06,0-.1-.03-.1-.1l.1-.58c0-.13.06-.19.19-.19h.58l.29-1.36c0-.13.06-.19.19-.19h.68c.1,0,.19.1.19.19l-.29,1.36h1.07c.13,0,.16.06.1.19v.58c-.06.06-.13.1-.19.1h0ZM185.78,93.12h-.29c-.68,0-1.26.39-1.36,1.16l-.58,3.2c0,.06-.06.1-.19.1h-.68c-.13,0-.19-.03-.19-.1l.97-5.15c0-.13.06-.19.19-.19h.49c.13,0,.19.06.19.19v.58c.39-.49.78-.78,1.36-.78h.29c.06,0,.1.06.1.19l-.1.68c0,.1-.1.1-.19.1v.02ZM181.8,95.06c0,.06-.06.1-.19.1h-2.82l-.1.49c-.1.68.19,1.07.87,1.07h1.55c.06,0,.1.06.1.19l-.1.58c0,.06-.06.1-.19.1h-1.46c-1.26,0-2.04-.78-1.84-1.94l.29-1.46c.19-1.36.97-2.14,2.33-2.14,1.16,0,1.94.87,1.75,2.14l-.19.87h0ZM180.06,92.93c-.58,0-.97.49-1.16,1.07v.49h2.04v-.49c.19-.58-.1-1.07-.87-1.07h0ZM176.56,95.74c-.19,1.16-.78,1.94-2.04,1.94-.49,0-.97-.19-1.26-.49l-.39,2.23c-.06.13-.13.19-.19.19h-.78c-.1,0-.1-.1-.1-.19l1.26-7.09c0-.13.06-.19.19-.19h.58c.06,0,.1.06.1.19v.39c.39-.49.78-.68,1.36-.68,1.16,0,1.75.87,1.55,1.94l-.29,1.75h0ZM175.01,93.03c-.68,0-1.07.49-1.26,1.07l-.19,1.65c-.19.68.19,1.07.87,1.07.58,0,.97-.39,1.07-.97l.29-1.75c.1-.58-.1-1.07-.78-1.07ZM170.06,94.87l1.16,2.62c0,.1,0,.19-.1.19h-.78c-.06,0-.13-.06-.19-.19l-.78-1.75-1.26,1.75c-.06.13-.16.19-.29.19h-.78c-.1,0-.1-.1-.1-.19l2.14-2.62-1.07-2.52c-.1-.1,0-.1.1-.1h.68c.13,0,.23.03.29.1l.68,1.65,1.26-1.65c.06-.13.16-.16.29-.1h.68c.07,0,.1.03.1.1l-2.04,2.52h.01ZM167.05,91.57h-2.91l-.29,2.04h2.62c.06,0,.1.06.1.19l-.1.58c-.06.13-.13.19-.19.19h-2.62l-.39,2.14h3.01c.1,0,.19,0,.1.1l-.1.68c0,.13-.06.19-.19.19h-3.88c-.13,0-.16-.06-.1-.19l1.16-6.7c0-.13.06-.19.19-.19h3.79c.13,0,.16.06.1.19l-.1.58c0,.13-.06.19-.19.19h-.01Z"/>
</svg>