<?xml version="1.0" encoding="UTF-8"?><svg id="a" xmlns="http://www.w3.org/2000/svg" width="87.51mm" height="39.9mm" viewBox="0 0 248.05 113.11"><defs><style>.h{fill:#fff;opacity:.4;stroke-width:0px;}</style></defs><path id="b" class="h" d="M115.27,79.15h1.21v-42.35h-1.21v42.35Z"/><path id="c" class="h" d="M91.25,67.18h3.11v-8.79h7.68v8.79h3.11v-18.1h-3.11v8.04h-7.68v-8.34l-5.93.62v.59c2.65.27,2.82.51,2.82,2.63v14.55ZM74.53,67.18h3.11v-8.82h3.42c1.69,0,2.31.86,2.31,2.31h.79v-5.65h-.79c-.17.89-.34,2.07-2.31,2.07h-3.42v-5.35c0-1.29.37-1.4,1.78-1.4h2.2c1.84,0,3.05.56,3.05,2.72h.79l-.08-3.98h-13.53v.59c2.6.4,2.68.4,2.68,3.06v14.44h0ZM57.48,67.18h3.11v-8.04h.99c3.5,0,7.74,0,7.74-5.08,0-3.17-2.26-4.97-5.73-4.97h-8.81v.59c2.65.4,2.71.4,2.71,3.06v14.44h0ZM60.59,51.95c0-1.1.08-1.61,1.61-1.61,2.51,0,4.01.59,4.01,3.6,0,3.23-1.92,3.93-4.15,3.93h-1.47v-5.92Z"/><path id="d" class="h" d="M215.89,61.55c-.19-.06-.69-.21-1.27-.21-1.35,0-1.89.72-1.89,1.52,0,1.51,2.43,1.7,2.43,2.63,0,.33-.27.67-.93.67s-1.17-.33-1.49-.55v1.03c.27.09.75.23,1.44.23,1.14,0,2.05-.47,2.05-1.6,0-1.69-2.47-1.78-2.47-2.73,0-.4.41-.55.77-.55.54,0,.97.27,1.36.52v-.95h0ZM208.58,62.99c.02-.3.19-1.19,1.08-1.19s1,.78,1,1.19h-2.07ZM211.67,66.05c-.34.16-.68.22-1.03.22-1.62,0-2.09-1.73-2.09-2.77h3.23c0-1.02-.33-2.16-2.07-2.16s-2.3,1.07-2.3,2.53c0,2.13,1.2,3,2.7,3,.68,0,1.1-.11,1.57-.3v-.51h0ZM206.79,66.07c-.32.12-.63.2-.96.2-1.38,0-1.94-1.48-1.94-2.76,0-.95.34-1.71,1-1.71.71,0,.78.74.78,1.38h1.2c0-1.09-.49-1.84-1.94-1.84-1.55,0-2.29.98-2.29,2.55,0,1.97,1,2.97,2.7,2.97.49,0,.98-.1,1.44-.27v-.52h0ZM197.02,66.74h1.14v-2.19c0-.65.32-2.39,1.45-2.39.58,0,.68.6.68,1.27v3.31h1.14v-3.86c0-.77-.41-1.54-1.36-1.54-1.19,0-1.71.99-1.89,1.38h-.02v-1.26h-1.14v5.28h0ZM192.63,62.99c.02-.3.19-1.19,1.08-1.19s1,.78,1,1.19h-2.07ZM195.72,66.05c-.34.16-.68.22-1.03.22-1.62,0-2.09-1.73-2.09-2.77h3.23c0-1.02-.33-2.16-2.07-2.16s-2.3,1.07-2.3,2.53c0,2.13,1.2,3,2.69,3,.68,0,1.1-.11,1.57-.3v-.51h0ZM188.99,60.19h1.23v-1.11h-1.23v1.11ZM189.03,66.74h1.14v-5.28h-1.14v5.28ZM187.97,66.07c-.32.12-.63.2-.96.2-1.38,0-1.94-1.48-1.94-2.76,0-.95.34-1.71,1-1.71.71,0,.78.74.78,1.38h1.2c0-1.09-.49-1.84-1.94-1.84-1.55,0-2.29.98-2.29,2.55,0,1.97,1,2.97,2.7,2.97.49,0,.97-.1,1.44-.27v-.52h0ZM182.59,59.16c-.31-.06-1.08-.2-1.8-.2-1.62,0-2.56.72-2.56,1.97,0,2.39,3.68,2.27,3.68,4.03,0,.78-.59,1.11-1.4,1.11-.92,0-1.82-.48-2.17-.68v1.19c.24.09,1.1.29,1.98.29,1.57,0,2.84-.63,2.84-2.24,0-2.4-3.68-2.35-3.68-3.96,0-.58.49-.97,1.18-.97.85,0,1.65.37,1.94.52v-1.05h0ZM169.3,64.1c0-.92.19-2.12,1.09-2.12.98,0,1.08,1.2,1.08,2.12s-.14,2.05-1.08,2.05-1.09-1.18-1.09-2.05M171.51,66.74h1.14v-7.66h-1.14v3.11h-.02c-.16-.29-.49-.85-1.4-.85-1.43,0-2.03,1.18-2.03,2.76s.48,2.76,2.03,2.76c.87,0,1.24-.63,1.4-.99h.02v.87h0ZM164.05,62.99c.02-.3.19-1.19,1.08-1.19s1,.78,1,1.19h-2.07ZM167.14,66.05c-.34.16-.68.22-1.03.22-1.62,0-2.09-1.73-2.09-2.77h3.23c0-1.02-.33-2.16-2.07-2.16s-2.3,1.07-2.3,2.53c0,2.13,1.2,3,2.69,3,.68,0,1.1-.11,1.57-.3v-.51h0ZM160.41,60.19h1.23v-1.11h-1.23v1.11ZM160.45,66.74h1.14v-5.28h-1.14v5.28ZM157.58,66.74h1.14v-7.66h-1.14v7.66ZM152.9,64.1c0-.88.14-2.05,1.08-2.05s1.09,1.18,1.09,2.05c0,.92-.19,2.12-1.09,2.12-.98,0-1.08-1.2-1.08-2.12M151.71,69.12h1.14v-3.11h.02c.16.29.49.85,1.39.85,1.44,0,2.04-1.18,2.04-2.76s-.48-2.76-2.04-2.76c-.86,0-1.23.63-1.39.99h-.02v-.87h-1.14v7.66h0ZM147.09,64.1c0-.88.14-2.05,1.08-2.05s1.09,1.18,1.09,2.05c0,.92-.19,2.12-1.09,2.12-.98,0-1.08-1.2-1.08-2.12M145.9,69.12h1.14v-3.11h.02c.16.29.49.85,1.39.85,1.44,0,2.04-1.18,2.04-2.76s-.48-2.76-2.04-2.76c-.86,0-1.23.63-1.39.99h-.02v-.87h-1.14v7.66h0ZM141.68,60.18h.02l1.1,3.55h-2.23l1.11-3.55ZM138.52,66.74h1.1l.71-2.28h2.7l.71,2.28h1.29l-2.61-7.66h-1.29l-2.6,7.66h0ZM131.34,66.74h1.14v-4.71h1.53v-.58h-1.53v-.63c0-.57.11-1.22,1.04-1.22.46,0,.77.14,1.01.24v-.77c-.27-.06-.68-.12-1.14-.12-1.81,0-2.05,1.02-2.05,2v.5h-.94v.58h.94v4.71h0ZM126.2,64.1c0-.97.12-2.3,1.13-2.3s1.14,1.33,1.14,2.3-.12,2.3-1.14,2.3-1.13-1.33-1.13-2.3M127.33,66.86c1.58,0,2.39-.98,2.39-2.76s-.81-2.76-2.39-2.76-2.38.98-2.38,2.76.79,2.76,2.38,2.76"/><path id="e" class="h" d="M213.81,56.58h1.2v-3.5l2.4-4.02h-1.11l-1.76,2.95-1.7-2.95h-1.34l2.31,4.02v3.5ZM208.6,56.58h1.2v-6.79h1.82v-.72h-4.83v.72h1.82v6.79h0ZM204.67,56.58h1.2v-7.51h-1.2v7.51ZM202.93,49.14c-.29-.05-1.03-.2-1.73-.2-1.56,0-2.46.71-2.46,1.93,0,2.34,3.54,2.23,3.54,3.95,0,.76-.57,1.09-1.35,1.09-.88,0-1.75-.47-2.09-.66v1.17c.23.09,1.06.28,1.9.28,1.51,0,2.73-.62,2.73-2.2,0-2.35-3.54-2.31-3.54-3.89,0-.57.47-.95,1.13-.95.82,0,1.59.36,1.86.51v-1.03h0ZM194.32,49.78h.45c1.13,0,1.72.29,1.72,1.31,0,1.19-.96,1.43-1.72,1.43h-.45v-2.73ZM193.13,56.58h1.2v-3.34h.45c1.17,0,1.38.7,1.54,1.34l.43,2h1.21l-.4-1.95c-.18-.88-.34-1.63-1.47-1.82v-.02c.64-.12,1.61-.55,1.61-1.75,0-1.8-1.65-1.97-2.92-1.97h-1.64v7.51h0ZM187.87,56.58h4.05v-.78h-2.85v-2.77h2.61v-.72h-2.61v-2.53h2.77v-.72h-3.96v7.51h0ZM183.45,56.58h1.24l2.5-7.51h-1.06l-1.95,6.06h-.02l-1.96-6.06h-1.24l2.48,7.51h0ZM179.04,56.58h1.2v-7.51h-1.2v7.51ZM171.93,56.58h.99v-6.12h.02l3.07,6.12h1.24v-7.51h-.99v5.94h-.02l-2.98-5.94h-1.33v7.51h0ZM170.28,49.07h-1.2v4.84c0,1.2-.09,2.14-1.35,2.14s-1.35-.94-1.35-2.14v-4.84h-1.2v4.84c0,1.37.23,2.79,2.55,2.79s2.55-1.42,2.55-2.79v-4.84h0ZM156.84,56.58h4.05v-.78h-2.85v-2.77h2.61v-.72h-2.61v-2.53h2.76v-.72h-3.96v7.51h0ZM152.95,56.58h1.2v-6.79h1.82v-.72h-4.83v.72h1.82v6.79h0ZM148.02,50.14h.02l1.06,3.48h-2.14l1.07-3.48ZM144.98,56.58h1.05l.69-2.23h2.59l.69,2.23h1.24l-2.52-7.51h-1.24l-2.5,7.51ZM141.32,56.58h1.24l2.5-7.51h-1.06l-1.95,6.06h-.02l-1.96-6.06h-1.24l2.48,7.51ZM136.92,56.58h1.2v-7.51h-1.2v7.51ZM132.02,49.78h.45c1.13,0,1.72.29,1.72,1.31,0,1.19-.96,1.43-1.72,1.43h-.45v-2.73ZM130.82,56.58h1.2v-3.34h.45c1.17,0,1.38.7,1.54,1.34l.42,2h1.21l-.4-1.95c-.18-.88-.34-1.63-1.47-1.82v-.02c.64-.12,1.61-.55,1.61-1.75,0-1.8-1.65-1.97-2.92-1.97h-1.64v7.51h0ZM126.55,49.78h.35c1.06,0,1.71.21,1.71,1.35,0,1.29-.81,1.41-1.71,1.41h-.35v-2.77ZM125.36,56.58h1.2v-3.31h.35c1.12-.01,2.91-.1,2.91-2.13,0-1.76-1.25-2.07-2.91-2.07h-1.55v7.51h0Z"/><path id="f" class="h" d="M41.63,52.94c1.35,1.35,1.31,3.57-.02,4.9h0c-1.33,1.33-3.53,1.35-4.89,0h0l-9.19,9.2h17.99v-17.99s-3.88,3.89-3.88,3.89Z"/><path id="g" class="h" d="M36.73,52.95c-1.34,1.34-1.36,3.54,0,4.9h0l2.37-2.37,2.54-2.54c-.68-.68-1.56-1.01-2.45-1.01h0c-.9,0-1.79.34-2.46,1.01"/></svg>