<?xml version="1.0" encoding="UTF-8"?><svg id="a" xmlns="http://www.w3.org/2000/svg" width="87.51mm" height="39.9mm" viewBox="0 0 248.05 113.11"><defs><style>.b{fill:#fff;opacity:.4;stroke-width:0px;}</style></defs><path class="b" d="M137.34,77.66h11.22s.04-.06.06-.07c-.04-.01-.1-.03-.14-.04-3.35-1.2-5.15-3.66-5.8-7.08-.28-1.51-.24-3.01-.23-4.53,0-.42.28-.42.58-.42h6.43c1.29,0,1.28,0,1.31,1.29.03.91.1,1.83.31,2.72.42,1.7,1.56,2.69,3.35,2.86.65.06,1.29.08,1.94-.03,1.63-.3,2.73-1.51,3.04-3.15.46-2.49-.75-4.18-2.59-5.57-1.7-1.29-3.6-2.27-5.42-3.36-2.03-1.21-4.01-2.49-5.63-4.25-1.8-1.96-2.74-4.25-2.81-6.91-.04-1.82.18-3.59.86-5.28,1-2.45,2.8-4.03,5.22-4.98,1.82-.72,3.72-1.01,5.66-1.08,2.18-.08,4.35-.01,6.47.62,3.48,1.03,5.53,3.34,6.25,6.87.04.2.08.38.17.58v-15.3c0-.35-.01-.68.49-.66.38,0,.55.14.52.53v46.81c-.03.35.15.48.48.46h14.12c.3,0,.66-.08.68.42,0,.51-.06.59-.66.59h-13.76c-.56,0-.84.28-.84.84v6.68c0,.39-.11.58-.53.58s-.49-.23-.49-.56v-6.74c0-.53-.28-.8-.84-.8H62.83c-.37,0-.65-.03-.65-.52s.3-.51.66-.51h30.08c0-.17-.13-.15-.21-.18-3.36-1.28-5.11-3.81-5.69-7.28-.23-1.39-.21-2.79-.2-4.18,0-.39.15-.52.53-.52h7.23c.41,0,.55.14.56.55.03,1.08.04,2.15.28,3.22.42,1.97,1.7,3.04,3.72,3.11.56.01,1.13.06,1.69-.06,1.84-.38,2.91-1.77,3.05-3.8.14-1.98-.83-3.39-2.25-4.59-1.55-1.28-3.31-2.22-5.04-3.22-2.24-1.31-4.48-2.63-6.28-4.55-2.27-2.41-3.21-5.25-2.93-8.54.13-1.44.38-2.83.97-4.15,1.15-2.56,3.18-4.11,5.78-4.9,3.59-1.1,7.23-1.18,10.88-.31,3.79.91,6.07,3.48,6.64,7.33.17,1.11.23,2.21.2,3.34-.03.63-.07.69-.69.69h-6.83c-.51,0-.68-.18-.66-.68.03-.89-.07-1.76-.31-2.62-.51-1.86-1.76-2.79-3.67-2.67-1.52.08-2.87.55-3.53,2.07-.65,1.51-.61,3.01.25,4.45.65,1.06,1.59,1.82,2.6,2.51,1.82,1.21,3.79,2.14,5.67,3.24,2.01,1.17,3.91,2.48,5.36,4.32,1.39,1.79,2.13,3.83,2.21,6.08.07,1.79-.08,3.55-.65,5.26-.93,2.83-2.83,4.67-5.57,5.7-.25.1-.49.18-.89.31h16.99c-.44-.15-.75-.27-1.07-.37-3.18-1.13-5.09-3.43-6.04-6.61-.52-1.76-.77-3.57-.93-5.39-.24-3.05-.32-6.11-.27-9.18.06-3.15.14-6.32.97-9.4.53-2,1.37-3.86,2.8-5.39,1.66-1.77,3.74-2.74,6.08-3.18,3.27-.61,6.53-.63,9.68.51,4.25,1.53,6.49,4.66,6.99,9.11.08.75.07,1.49.08,2.24,0,.42-.13.59-.58.59-2.39-.01-4.79,0-7.18,0-.42,0-.56-.15-.55-.56.03-.91-.03-1.83-.23-2.73-.58-2.79-2.49-3.77-5.15-3.55-1.86.15-2.87,1.38-3.49,3-.59,1.53-.75,3.17-.9,4.79-.18,2-.15,4-.14,5.98,0,3.25-.04,6.52.46,9.75.11.77.28,1.53.53,2.28.7,2.03,1.94,2.94,4.08,3.05,1.52.08,2.98-.15,4.42-.61.28-.08.41-.23.41-.53v-7.74c0-.37-.14-.49-.49-.49h-3.39c-.46,0-.61-.15-.61-.61.01-1.65.01-3.29,0-4.94,0-.44.14-.58.58-.58h11.67c.42,0,.55.15.55.56v18.91c0,.38-.14.53-.51.59-.89.14-1.77.3-2.65.45v.04l.03.07ZM167.59,63.8v-13.51q0-.65-.69-.66h-6.73c-.46,0-.66-.15-.65-.63.03-1.04-.13-2.05-.52-3.03-.41-1-1.06-1.77-2.11-2.11-1.13-.35-2.24-.25-3.32.17-.94.38-1.6,1.06-1.93,2.03-.55,1.67-.34,3.25.76,4.66.84,1.08,1.96,1.84,3.12,2.52,1.73,1,3.49,1.93,5.21,2.93,2,1.15,3.83,2.52,5.21,4.42.7.97,1.21,2.05,1.63,3.18v.04ZM167.59,70.74c-.94,3.55-3.19,5.8-6.67,6.9,2.1.04,4.18.04,6.25.04.32,0,.44-.14.44-.45v-6.49h-.01Z"/></svg>