<?xml version="1.0" encoding="UTF-8"?>
<svg id="Ebene_1" data-name="Ebene 1" xmlns="http://www.w3.org/2000/svg" version="1.1" viewBox="0 0 248.1 113.1">
  <defs>
    <style>
      .cls-1 {
        fill: #000;
        font-family: MyriadPro-Regular, 'Myriad Pro';
        font-size: 12px;
      }

      .cls-1, .cls-2 {
        isolation: isolate;
      }

      .cls-3 {
        opacity: .4;
      }

      .cls-4 {
        fill: #fff;
        stroke-width: 0px;
      }

      .cls-5 {
        display: none;
      }

      .cls-6 {
        fill: none;
        stroke: #933535;
        stroke-miterlimit: 10;
      }
    </style>
  </defs>
  <g id="Ebene_3" data-name="Ebene 3" class="cls-3">
    <g>
      <path class="cls-4" d="M151.2,47.6v8c-.4-.4-.6-.6-.6-.7-3.4-4-9.2-4.2-13-.5-3.4,3.4-4.2,9.4-1.7,14,2,3.8,6.1,5.8,10.2,4.7,1.8-.6,3.5-1.9,5.3-2.9v2.4h3.8v-32.6h-3.8v7.5h0ZM144.9,69.5c-3.7,0-6.4-3-6.4-7.2s2.6-7.3,6.3-7.3,6.6,3,6.6,7.2-2.7,7.3-6.6,7.3h0Z"/>
      <path class="cls-4" d="M75.2,55c-1.4-.9-3-1.4-4.6-2.2-1.4-.7-3-1.3-4.3-2.2-1.8-1.4-1.9-3.5-.6-5.2,2.2-2.8,6.7-2.9,9.1-.2.3.3.6.7.9,1,1.1-.6,2.2-1.3,3.1-1.9-2.7-5.5-10.8-6.7-15.5-2.5-3.8,3.4-3.5,9.1.6,12.1,1.3,1,2.9,1.6,4.3,2.3,1.5.7,3.1,1.3,4.6,2.2,2.5,1.4,3.4,3.8,2.6,6.5-.8,2.7-3,4.6-5.8,4.6s-5.3-1.8-6-4.4c-.2-.6-.2-1.1-.4-1.8-1.4.3-2.6.6-4,.9.7,6.3,6,10,12.3,9.1,4.1-.6,7.4-3.8,8.2-7.9.8-4.2-.7-8-4.5-10.3h0Z"/>
      <path class="cls-4" d="M87.9,53.8c-.5.5-1,1-1.7,1.8v-3.1h-3.8v30.2h3.8v-13c.5.5.6.7.9.9,3.7,4,9.9,3.8,13.4-.5,3.4-4.1,3.4-10.9,0-15.1-3.2-3.9-8.9-4.5-12.7-1.2h0ZM90.8,69.5c-2.6-.7-4.5-3.4-4.7-6.8s2-6.7,5-7.4c4.4-.9,7.9,2.2,7.9,7.1,0,5-3.8,8.2-8.3,7h0Z"/>
      <path class="cls-4" d="M176.8,59.4c-.6-3.4-2.3-6.1-5.8-7.2-3.5-1.1-7-.9-9.9,1.6-3,2.6-3.6,6-3.4,9.7.4,6.7,5.4,10.7,12,9.6,3.3-.6,5.8-2.4,7.5-5.4-1.2-.6-2.2-1.3-3.4-1.9-1.9,3-4.4,4.8-8,3.6s-4-3.4-4-6.2h15.5c-.2-1.4-.2-2.6-.4-3.8h0ZM162,60.1c.2-2.8,2.6-5,5.7-5s5,2.1,5.2,5h-10.9Z"/>
      <path class="cls-4" d="M124.3,59c-.9-4.2-3.9-6.9-7.9-7.2-5.2-.4-8.8,1.5-10.3,5.9-.6,1.7-.8,3.6-.8,5.4,0,5.7,3.4,9.5,9.1,10.3,4.1.6,8.8-2,10.3-5.7-1-.6-2.2-1.2-3.3-1.8-1.8,3-4.2,4.6-7.7,3.7-2.5-.6-4.1-2.9-4.4-6.3h15.6c-.2-1.5-.2-2.9-.5-4.2h0ZM109.5,60.1c.2-2.8,2.6-5,5.5-5s5.1,1.9,5.4,5h-10.9Z"/>
      <path class="cls-4" d="M179.5,40v32.6h3.8v-32.6h-3.8Z"/>
      <path class="cls-4" d="M127.6,72.7h2.8c.3,0,.6,0,1,0v-20.1h-3.8v20.3h0Z"/>
      <path class="cls-4" d="M129.7,40.3c-1.4,0-2.7,1.1-2.8,2.6,0,1.4,1.1,2.6,2.6,2.6,1.4,0,2.6-1,2.7-2.5,0-1.4-1.1-2.6-2.5-2.7h0Z"/>
    </g>
  </g>
  <g id="Ebene_2" data-name="Ebene 2" class="cls-5">
    <line class="cls-6" x1="-5.6" y1="42.5" x2="301.2" y2="42.5"/>
    <line class="cls-6" x1="-24.7" y1="71.1" x2="282.1" y2="71.1"/>
    <line class="cls-6" x1="46.1" y1="1.4" x2="46.1" y2="147.4"/>
    <line class="cls-6" x1="201" y1="-18.9" x2="201" y2="127.2"/>
    <line class="cls-6" x1="261.5" y1="-91.1" x2="568.4" y2="-91.1"/>
    <line class="cls-6" x1="242.5" y1="-62.5" x2="549.3" y2="-62.5"/>
    <line class="cls-6" x1="313.3" y1="-132.2" x2="313.3" y2="13.9"/>
    <line class="cls-6" x1="468.1" y1="-152.5" x2="468.1" y2="-6.4"/>
    <g class="cls-2">
      <text class="cls-1" transform="translate(-125.8 -57)"><tspan x="0" y="0">little john bikes</tspan></text>
      <text class="cls-1" transform="translate(-125.8 -42.6)"><tspan x="0" y="0">pfh</tspan></text>
      <text class="cls-1" transform="translate(-125.8 -28.2)"><tspan x="0" y="0">speidel</tspan></text>
      <text class="cls-1" transform="translate(-125.8 -13.8)"><tspan x="0" y="0">sgs</tspan></text>
    </g>
  </g>
</svg>