<?xml version="1.0" encoding="UTF-8"?>
<svg id="uuid-87ff0c02-9070-4538-a1ce-50ac80a33184" data-name="Ebene 2" xmlns="http://www.w3.org/2000/svg" viewBox="0 0 248.05 113.11">
  <defs>
    <style>
      .uuid-cd9f0c5d-c3a8-48ab-8868-2611b398b555 {
        opacity: .6;
      }

      .uuid-cd9f0c5d-c3a8-48ab-8868-2611b398b555, .uuid-5a6f9bf7-7e30-47e3-ada3-fb6f7c5ebae2 {
        fill: #fff;
      }

      .uuid-5a6f9bf7-7e30-47e3-ada3-fb6f7c5ebae2 {
        opacity: .5;
      }
    </style>
  </defs>
  <g id="uuid-2c8b03c5-4db0-48b9-bd5d-015e4f3acb85" data-name="steinbach">
    <path class="uuid-cd9f0c5d-c3a8-48ab-8868-2611b398b555" d="m171.84,34.31c-1.97,0-14.41,4.59-16.05,3.93-.33-2.29-.66-4.26-.66-6.55l-8.52,11.46s-3.93-1.64-4.59-1.97c-.66-.33-3.93-.98-3.93-.98.66-1.64.33-3.6-.33-5.24-1.31-2.29-3.6-3.6-5.9-3.28-1.31,0-6.88,1.64-7.86,2.62l-.33.33h0c0,.33,0,.66.33.66.33,1.31.98,2.62,1.31,3.93h0c.98,1.97,2.29,3.6,3.93,4.59,1.64.66,1.64,2.62,1.64,2.62.33,1.31.66,2.62.98,3.93.66,1.31,1.31,2.29,2.29,3.6h13.43c.66-.66,1.31-1.31,1.97-1.64,1.97-.66,3.6-.98,5.24-.98.66,0,1.64,0,1.97-.98,0-.98-2.62-2.95-2.62-2.95,0,0,18.67-13.1,17.69-13.1Zm-39.63,9.17c-2.95,0-5.24-2.29-5.24-5.24s2.29-5.24,5.24-5.24,5.24,2.29,5.24,5.24c.33,2.95-2.29,5.24-5.24,5.24Zm11.79,6.88c-2.62-.66-5.24-1.97-6.88-3.93-.33-.33-.33-1.31,0-1.31h0c2.95-.66,5.9-.33,8.52.66,2.95.98,5.24,2.95,6.88,5.24-2.62.33-5.57.33-8.52-.66Zm8.84-4.26l-4.91-2.62h0s6.22-8.84,6.55-8.84.33,4.91.66,5.24c.66,0,10.15-2.62,9.83-2.29s-12.12,8.52-12.12,8.52Z"/>
    <path class="uuid-cd9f0c5d-c3a8-48ab-8868-2611b398b555" d="m129.59,35.62c-.66,0-1.31.66-1.31,1.31s.66,1.31,1.31,1.31,1.31-.33,1.31-1.31c0-.66-.66-1.31-1.31-1.31Z"/>
    <path class="uuid-cd9f0c5d-c3a8-48ab-8868-2611b398b555" d="m123.7,34.31c-.98-.98-6.55-2.62-7.86-2.62-2.29,0-4.59,1.31-5.9,3.28-.66,1.64-.98,3.28-.33,5.24,0,0-2.95.66-3.93.98-.33.33-4.26,1.97-4.26,1.97l-8.52-11.46c0,2.29-.33,4.26-.66,6.55-1.64.66-14.08-3.93-16.05-3.93-.66,0,17.69,13.1,17.69,13.1,0,0-2.62,1.97-2.29,2.95,0,.98.98.98,1.64,1.31,1.64,0,3.6.33,5.24.66.66.66,1.31.98,1.97,1.64h13.43c.98-.98,1.64-2.29,2.29-3.6.33-1.31.98-2.62,1.31-3.93,0,0,0-1.97.66-1.97,1.64-1.31,2.95-2.95,3.93-4.91h0c.66-1.31,1.31-2.62,1.64-4.26,0,0,.33-.33,0-.98q.33.33,0,0,.33.33,0,0c.33.33,0,.33,0,0Zm-40.61,3.28c-.33-.33,9.17,2.29,9.83,2.29.66-.33.33-5.24.66-5.24s6.55,8.84,6.55,8.84l-4.91,2.62c.33,0-11.79-8.19-12.12-8.52Zm28.17,8.52c-1.97,1.97-4.26,3.6-6.88,3.93-2.95,1.31-5.9,1.31-8.84.66,1.64-2.62,4.26-4.26,6.88-5.24,2.95-.98,5.9-1.31,8.84-.66h0c.33,0,.33.98,0,1.31Zm4.59-2.62c-2.95,0-5.24-2.29-5.57-5.24,0-2.95,2.62-5.24,5.57-5.24,2.95,0,5.24,2.29,5.24,5.24s-2.29,5.24-5.24,5.24Z"/>
    <path class="uuid-cd9f0c5d-c3a8-48ab-8868-2611b398b555" d="m118.46,35.62c-.66,0-1.31.66-1.31,1.31,0,.98.66,1.31,1.31,1.31s1.31-.66,1.31-1.31c.33-.66-.33-1.31-1.31-1.31Z"/>
    <path class="uuid-5a6f9bf7-7e30-47e3-ada3-fb6f7c5ebae2" d="m133.85,67.39h-.66v7.86h1.31c.66,0,1.64-.33,1.97-.98.33-.66.66-1.64.66-2.62v-1.31c0-.98-.33-1.64-.66-2.29-.66-.33-1.64-.66-2.62-.66Z"/>
    <polygon class="uuid-5a6f9bf7-7e30-47e3-ada3-fb6f7c5ebae2" points="146.62 69.68 151.21 69.68 148.92 63.46 146.62 69.68"/>
    <path class="uuid-5a6f9bf7-7e30-47e3-ada3-fb6f7c5ebae2" d="m134.18,67.06c.66,0,1.31-.33,1.97-.66.33-.66.66-1.64.66-2.29v-1.31c0-.98,0-1.64-.33-2.62-.33-.66-.98-.66-1.64-.66h-.98v7.21h.33v.33Z"/>
    <path class="uuid-5a6f9bf7-7e30-47e3-ada3-fb6f7c5ebae2" d="m49.02,53.96v27.51h150v-27.51H49.02Zm16.38,20.63c-1.31.98-2.95,1.64-4.91,1.64-.98,0-2.29,0-3.28-.33l-1.97-.33c-.33,0-.33.33-.66.66h-.33l-.33-5.57h.33c.66,1.31,1.64,2.62,2.95,3.6.98.98,2.29,1.64,3.6,1.64.66,0,1.64-.33,2.29-.66.66-.33.98-1.31.98-1.97s-.33-1.64-.98-1.97c-.98-.66-1.97-.98-2.95-1.31-.98-.33-1.97-.66-2.95-.98-.66-.33-1.31-.66-1.64-.98-.98-.98-1.64-2.29-1.31-3.93,0-1.31.66-2.62,1.64-3.6,1.31-.98,2.95-1.64,4.26-1.64.98,0,1.97,0,2.95.33.66.33,1.31.33,1.64.33s.33,0,.66-.33h.66v4.59h-.66c-.66-1.31-1.64-2.29-2.62-3.28-.66-.66-1.64-.98-2.62-.98s-1.64.33-2.29.66c-.66.33-.98.98-.98,1.64s.33,1.31.98,1.64c.66.33,1.64.66,2.62.98l1.97.66,1.31.33c.33,0,.66.33,1.31.66.33.33.66.33.98.66h0c.33.33.66.66.66.98.33.66.66,1.64.66,2.62-.33,1.64-.98,2.95-1.97,4.26Zm17.69-9.5c-.66-1.31-1.31-2.95-1.97-4.26-.66-.66-1.64-.98-2.62-.98h-.33v15.39h2.29v.66h-9.5v-.66h2.29v-15.39h-.33c-.98,0-1.97.33-2.62.98-.98,1.31-1.64,2.62-1.97,4.26h-.33l.33-5.9h15.07l.33,5.9h-.66Zm16.05,10.81h-14.08v-.66h1.64v-15.39h-1.64v-.66h13.1v4.59h-.33c-.33-1.31-1.31-2.29-2.29-3.28-.98-.66-1.97-.98-3.28-.98h-.98v7.21h.98c.66,0,1.64-.33,1.97-.98.66-.66.98-1.31,1.31-2.29h.33v7.53h-.33c-.33-.98-.66-1.97-1.31-2.62s-1.31-.66-2.29-.66h-.66v7.53h.98c1.31,0,2.95-.33,3.93-1.31h0c.98-.98,1.97-1.97,2.29-3.28h.66v5.24Zm9.5-16.05h-1.31v15.72h1.31v.33h-7.86v-.33h1.31v-15.72h-1.31v-.66h7.86v.66Zm17.03,0h-1.31v16.05h-3.6l-8.84-15.39v14.74h1.31v.33h-3.6v-.33h1.64v-15.39h-1.31v-.66h6.88l6.55,11.79v-11.14h-1.31v-.66h3.6v.66Zm14.41,15.07c-1.97.66-3.93.98-5.9.98h-7.53v-.33h1.64v-15.72h-1.64v-.66h7.53c1.97,0,3.6.33,5.57.98.98.66,1.97,1.64,1.64,2.95,0,2.29-1.31,3.6-4.26,3.93h0c3.28.33,4.91,1.64,4.91,3.93.33,1.64-.33,3.28-1.97,3.93Zm19.65.98h-8.19v-.33h1.97l-1.97-5.24h-4.91l-1.97,5.24h1.97v.33h-3.93v-.33h1.31l6.55-16.38h1.97l6.22,16.38h1.31v.33h-.33Zm14.74-.33h0c-.33,0-.33-.33-.66-.33h-.33l-1.64.33c-.98.33-2.29.33-3.28.33-2.29.33-4.59-.66-6.55-1.97-1.64-1.64-2.29-3.93-2.29-6.22-.33-2.29.66-4.91,2.29-6.55s3.93-2.29,6.22-2.29c.98,0,1.97,0,2.95.33.66,0,1.31.33,1.64.33h.33l.33-.33h.33l.33,5.24h-.33c-.66-1.31-1.31-2.62-2.29-3.6-.66-.66-1.64-1.31-2.62-1.31-2.62,0-3.93,2.29-3.93,7.21v1.97c0,1.97.33,3.6.98,5.24.66,1.31,1.64,1.97,2.95,1.97h0c1.97,0,3.6-1.64,5.24-4.91h.33v4.59Zm19.98-15.72h-1.31v15.72h1.64v.33h-8.19v-.33h1.64v-7.86h-4.91v7.53h1.64v.33h-8.19v-.33h1.64v-7.53h-2.95v-.66h2.95v-7.21h-1.64v-.66h7.86v.33h-1.64v7.21h4.91v-6.88h-1.31v-.66h7.86v.66Z"/>
  </g>
</svg>