<?xml version="1.0" encoding="UTF-8"?>
<svg id="uuid-1f2bd0da-ee35-418f-92c4-12b2f8fe2ec0" data-name="Ebene 2" xmlns="http://www.w3.org/2000/svg" viewBox="0 0 248.05 113.11">
  <defs>
    <style>
      .uuid-843a1c26-d8f5-488d-b10e-d76c97529fea {
        opacity: .5;
      }

      .uuid-843a1c26-d8f5-488d-b10e-d76c97529fea, .uuid-cd80623f-4e0a-4207-a24d-e3432b0f2566, .uuid-b672304f-1b03-4594-a9a7-7a4146b26aba {
        fill: #fff;
        fill-rule: evenodd;
      }

      .uuid-cd80623f-4e0a-4207-a24d-e3432b0f2566 {
        opacity: .6;
      }

      .uuid-b672304f-1b03-4594-a9a7-7a4146b26aba {
        opacity: .7;
      }
    </style>
  </defs>
  <g id="uuid-55fd0059-e54d-49a6-b0c6-0c2da9839670" data-name="urlaubsguru">
    <path class="uuid-cd80623f-4e0a-4207-a24d-e3432b0f2566" d="m57.59,47.88c0-.59,0-1.1-.14-1.64-.48-2.07-2.55-4.16-5.55-3.8-2.38.28-4.28,2.46-4.3,4.93,0,.48.03.96.17,1.42.11.34,0,.48-.25.68-1.56,1.22-2.89,2.63-3.88,4.33-.76,1.33-1.3,2.75-1.42,4.3,0,.08-.03.17-.03.28,0,.03-.03.06-.06.11-.17.03-.2-.11-.28-.2-1.44-1.42-2.29-3.14-2.61-5.1-.74-4.45.45-8.3,3.54-11.5,1.81-1.87,4.08-2.89,6.6-3.4,1.5-.31,3.03-.4,4.56-.11,5.13.91,6.32,6.32,3.8,9.63,0,0-.06,0-.14.06"/>
    <path class="uuid-b672304f-1b03-4594-a9a7-7a4146b26aba" d="m56.68,47.42c0,2.24-1.81,4.11-4.05,4.13-2.24.03-4.11-1.87-4.11-4.13s1.84-4.11,4.08-4.11c2.24.03,4.08,1.87,4.08,4.11"/>
    <path class="uuid-b672304f-1b03-4594-a9a7-7a4146b26aba" d="m65.01,45.75c-1.25-2.41-3.23-4.08-5.61-5.3-.08-.03-.14-.11-.25-.06-.03.06,0,.11,0,.14.68,1.39,1.02,2.83.79,4.36v.23c.03.14.11.2.23.11.11-.06.2-.14.31-.23.57-.42,1.19-.71,1.84-.91.14-.03.25-.11.45.03-.79.48-1.67.85-2.32,1.53.37.45.74.91.99,1.39.14.25.31.31.57.25.57-.11,1.13-.06,1.67.06.11.03.25.03.28.2-.59,0-1.19-.03-1.76.06-.4.06-.4.08-.28.45.2.48.31.96.42,1.47.03.11.03.23.06.34,0,.08.06.2-.08.31-.28-.82-.59-1.61-1.02-2.32s-.91-1.39-1.59-1.95c-.31.93-.68,1.7-1.22,2.41-.23.28-.45.57-.71.85-.17.2-.14.31.06.45.08.06.14.11.23.17,1.39,1.19,2.58,2.52,3.48,4.13.34.62.62,1.27.96,1.93.03-.23.08-.45.11-.71.28-1.44,1.25-2.35,2.66-2.49q.79-.06.91-.88c0-.08,0-.14.03-.23.17-2.04-.28-3.97-1.22-5.81"/>
    <path class="uuid-843a1c26-d8f5-488d-b10e-d76c97529fea" d="m121.17,66.77v.99c-.03.37-.06.45-.4.45h-4.64c-.34,0-.4-.08-.42-.42-.03-.17,0-.37,0-.54v-16.68c0-.51.03-.99.06-1.5.11-1.19.71-1.76,1.9-1.87,1.22-.11,2.44-.06,3.65-.06.48,0,.51.03.51.54v6.4c0,.48.08.51.51.34.34-.17.68-.34,1.02-.51,2.41-1.25,5.07-.79,6.94,1.16,1.25,1.3,1.9,2.89,2.1,4.67.23,2.04-.11,3.99-1.16,5.78-1.5,2.66-4.53,3.82-7.42,2.86-.71-.25-1.36-.62-1.93-1.13-.14-.2-.34-.4-.71-.48m3-3.26c1.47,0,2.58-1.1,2.58-2.61.03-1.5-1.05-2.61-2.55-2.63-1.53-.03-2.66,1.08-2.66,2.58.03,1.5,1.16,2.66,2.63,2.66m-75.82-13.37c.42.57.85,1.08,1.39,1.44.2.14.17.31.17.48v6.94c0,.4.03.79.11,1.22.31,1.64,1.42,2.29,2.97,2.12,1.16-.11,1.98-.99,2.15-2.21.06-.51.11-1.02.11-1.53v-6.4c0-.34.08-.57.37-.76.48-.34.85-.79,1.19-1.27.2.03.31.17.42.25,1.47,1.19,2.72,2.58,3.63,4.28.68,1.27,1.08,2.63,1.08,4.11,0,1.22.03,2.41-.28,3.6-.65,2.52-2.21,4.36-4.62,5.3-2.97,1.16-6,1.22-9.01.08-.88-.34-1.7-.82-2.44-1.44-1.47-1.27-2.21-2.95-2.35-4.87-.06-.91-.08-1.84-.06-2.75.03-1.36.4-2.61.99-3.8.99-1.93,2.41-3.46,4.16-4.79m59.7,16.79c-.31-.08-.51.11-.74.28-.68.48-1.42.91-2.21,1.19-2.86.93-5.69-.65-6.34-3.57-.11-.48-.17-.99-.17-1.47v-7.59c0-.28.03-.54.11-.82.2-.68.62-1.1,1.36-1.22.2-.03.4-.06.59-.06,1.19,0,2.35-.03,3.54-.03.51,0,.51.03.51.54,0,2.46,0,4.93.08,7.39.03.34.03.65.14.96.2.57.59.91,1.22.93.62.06,1.1-.23,1.39-.79.25-.51.34-1.08.34-1.64.03-1.7.06-3.37.11-5.07,0-.14,0-.28.03-.45.11-1.16.76-1.78,1.9-1.87.42-.03.88-.03,1.3-.03h2.35c.4,0,.42.06.45.45v13.74c.03.25-.11.37-.37.37h-5.1c-.37-.03-.4-.06-.42-.42-.06-.25,0-.54-.08-.82m-10.82-3.54v4.19c0,.57,0,.59-.59.59h-4.3c-.57,0-.57-.03-.68-.54-.08-.42-.11-.45-.48-.23-.76.51-1.56.93-2.46,1.1-1.25.23-2.46.14-3.6-.51-2.07-1.19-2.75-3.57-1.95-5.66.37-.93,1.05-1.59,1.9-2.04,1.02-.54,2.12-.85,3.29-.99.79-.08,1.59-.14,2.38-.23.59-.06.74-.28.54-.85-.14-.37-.4-.57-.74-.68-.65-.23-1.33-.2-1.98.03-.57.2-1.1.48-1.61.76-.42.25-.48.23-.82-.14-.37-.4-.74-.82-1.08-1.25-.93-1.1-.85-1.78.34-2.63.76-.54,1.61-.82,2.49-1.05,1.81-.48,3.6-.42,5.38.08,2.12.62,3.31,2.15,3.77,4.28.17.79.25,1.59.25,2.41-.06,1.16-.06,2.27-.03,3.34h0Zm-5.47-.68c0-.14-.03-.25-.03-.4,0-.25-.11-.37-.37-.34-.82.14-1.64.23-2.46.45-.51.14-.79.48-.85,1.02-.06.51.14.93.57,1.22.74.48,1.76.4,2.41-.23.51-.48.74-1.05.74-1.73h0Zm47.13,6.06c-2.12-.03-4.13-.45-5.98-1.59-.65-.4-.65-.42-.11-.99.51-.54,1.02-1.1,1.53-1.64.42-.51.96-.68,1.61-.54.74.17,1.44.37,2.18.54.4.08.79.11,1.16-.14.42-.31.42-.74.03-1.05-.17-.11-.37-.2-.54-.25-.79-.28-1.61-.57-2.41-.85-.17-.06-.34-.11-.51-.2-2.69-1.13-3.54-4.33-1.76-6.66,1.02-1.3,2.38-2.04,3.99-2.27,2.55-.4,4.96.08,7.19,1.39.06.03.11.08.2.11.23.14.28.28.08.48-.17.2-.31.4-.48.59-.54.65-1.08,1.27-1.59,1.95-.34.45-.54.51-1.08.34-.59-.2-1.19-.37-1.76-.54-.37-.11-.76-.11-1.13,0-.28.08-.54.23-.57.59-.03.28.11.48.51.62.51.2,1.05.34,1.56.51l1.64.54c3.26,1.08,3.54,5.13,1.7,7.02-1.05,1.1-2.32,1.76-3.82,1.93-.62.06-1.13.08-1.67.08m-57.27-11.1v9.97c0,.48-.03.54-.54.54h-5.13c-.54,0-.59-.06-.59-.62v-4.13c0-3.26.03-6.54.03-9.8,0-1.36-.06-2.72.06-4.08.03-.45.11-.88.25-1.3.2-.62.65-1.02,1.3-1.08,1.36-.17,2.72-.2,4.08-.14.45.03.48.03.51.51.03.42.03.85.03,1.27v8.86h0m-18.04,4.19v-5.38c0-.51.06-.99.2-1.47.23-.71.68-1.16,1.44-1.25.23-.03.48-.06.71-.06.99,0,2.01-.03,3,0,.48,0,.51,0,.54.54,0,.14,0,.28.03.45.06.25.14.31.37.2.08-.06.17-.11.28-.2.45-.31.88-.65,1.33-.96.79-.54,1.64-.65,2.55-.48.25.06.37.2.37.45-.06.57-.08,1.13-.14,1.7-.06.71-.14,1.42-.2,2.12,0,.14-.03.25-.03.4-.08.48-.11.51-.57.54-.4.03-.76.06-1.13.08-1.59.14-2.46,1.1-2.49,2.72-.03,1.84,0,3.68-.03,5.49v.82c0,.59-.03.62-.62.62h-4.96c-.59,0-.59-.03-.59-.62-.08-1.93-.08-3.82-.06-5.72h0Z"/>
    <path class="uuid-cd80623f-4e0a-4207-a24d-e3432b0f2566" d="m157.34,54.98v-.91c.03-.37.11-.45.45-.48,1.22-.03,2.44-.06,3.65.11.88.11,1.36.57,1.59,1.44.11.42.17.88.17,1.3,0,3.71.03,7.42-.08,11.13-.03.88-.2,1.76-.45,2.61-.45,1.56-1.42,2.75-2.83,3.54-1.36.76-2.83,1.16-4.36,1.3-2.83.23-5.55-.2-8.1-1.5-1.16-.59-.93-.57-.4-1.42.57-.91,1.16-1.81,1.76-2.72.31-.45.34-.48.82-.2.85.48,1.7.91,2.66,1.08,1.02.17,2.04.14,3.03-.2,1.19-.4,1.93-1.53,1.84-2.75-.03-.17,0-.34-.2-.42-.17-.06-.25.06-.4.14-3.34,2.44-7.82,1.22-9.43-2.63-1.36-3.29-1.02-6.34,1.25-9.12,1.95-2.44,5.89-2.95,8.3-.74.25.17.42.34.74.42m-2.61,3.29c-1.5-.03-2.61,1.08-2.61,2.55s1.08,2.66,2.52,2.69c1.5.03,2.69-1.13,2.69-2.63,0-1.44-1.13-2.58-2.61-2.61m54.24,3.71v5.55c0,.62-.06.68-.65.68h-4.76c-.57,0-.59-.03-.59-.59,0-.25,0-.48-.08-.71-.06-.2-.23-.23-.4-.11-.06.06-.11.11-.14.17-1.47,1.61-3.8,2.12-5.83,1.33-1.87-.74-2.75-2.18-3-4.11-.06-.54-.11-1.1-.08-1.64v-8.33c.03-.54.08-.62.65-.62.99,0,2.01,0,3,.03.4,0,.76.06,1.13.2.74.25,1.19.76,1.3,1.53.06.37.08.74.08,1.1.03,1.64.06,3.31.08,4.96,0,.4.03.82.17,1.19.2.59.65.91,1.27.93.62.03,1.02-.23,1.3-.82.28-.62.34-1.27.34-1.93v-6.23q0-.96.93-.93c.91,0,1.81.03,2.72.06.4,0,.79.03,1.19.17.62.2,1.02.62,1.22,1.25.17.54.2,1.08.2,1.64l-.06,5.24h0Zm-34.95,4.81c.08.34.03.65.06.93.03.25.11.4.4.42,1.76.14,3.51.08,5.3,0,.25-.03.4-.17.4-.42v-10.96c0-.4-.03-.76-.08-1.16-.17-1.33-.79-1.9-2.12-1.93-.88,0-1.76-.03-2.61-.03h-.99c-.25,0-.4.11-.4.4v.45c0,1.98,0,3.97-.03,5.95,0,.76-.06,1.5-.34,2.21-.23.57-.68.85-1.27.85s-1.1-.34-1.3-.91c-.08-.23-.11-.45-.14-.71-.11-1.1-.06-2.21-.08-3.29-.03-1.08.03-2.12-.08-3.2-.11-1.02-.71-1.67-1.73-1.7-1.3-.06-2.61-.03-3.94-.03-.34,0-.42.11-.45.48v.48l.03,7.51c0,.79.06,1.59.2,2.35.45,2.83,2.83,4.59,5.78,4.08,1.02-.17,1.93-.68,2.72-1.33.17-.14.37-.34.71-.45m13.65-11.58c-.14-.14-.2-.28-.23-.42-.25-.76-.74-1.1-1.53-1.13-1.13-.03-2.27-.06-3.37-.08-.85-.03-.85,0-.85.85v13.28c0,.42.08.48.48.51.08,0,.17.03.28.03,1.5,0,2.97.06,4.47-.03.23,0,.42-.03.65-.06.17-.03.25-.11.25-.28v-6.26c0-.28.03-.59.06-.88.17-1.08.79-1.76,1.81-2.04.45-.14.93-.11,1.42-.17.76-.06.93.08.99-.91,0-.06.03-.11.03-.17.08-.93.25-1.84.25-2.8.03-.71-.2-.96-.91-1.05-1.25-.17-2.29.17-3.17,1.08-.23.14-.37.4-.65.54"/>
  </g>
</svg>