<svg role="graphics-document" title="NP_Logo_weiss_2022" desc="" alt="Weißes Logo mit einem großen stilisierten N auf der linken Seite, gefolgt von dem Wort netzproduzenten in Kleinbuchstaben und einem eingetragenen Markensymbol, alles auf hellgrauem Hintergrund." id="Ebene_1" data-name="Ebene 1" xmlns="http://www.w3.org/2000/svg" viewBox="0 0 1898.19 370.08" preserveAspectRatio="xMinYMid meet"><defs><style>.cls-1,.cls-2{fill:#092737;}.cls-1{fill-rule:evenodd;}</style></defs><title>NP_Logo_weiss_2022</title><path class="cls-1" d="M446.44,176.17h11.71v16.38a49.16,49.16,0,0,1,15.67-14,39,39,0,0,1,18.7-4.62,32.63,32.63,0,0,1,18.26,5.2,31,31,0,0,1,11.76,14q3.8,8.79,3.79,27.43v47H514.62V224c0-10.5-.46-17.53-1.34-21.06-1.44-6-4.08-10.56-8-13.63s-8.92-4.57-15.15-4.57A29.08,29.08,0,0,0,471,191.83a32.7,32.7,0,0,0-11.17,17.45q-1.68,6.81-1.69,24.82v33.49H446.44V176.17Zm181.3,61.12,9.93,5.22a54,54,0,0,1-11.31,15.38,45.29,45.29,0,0,1-14.4,8.9,50.68,50.68,0,0,1-18.14,3q-22.46,0-35.09-14.64t-12.66-33.05a48.56,48.56,0,0,1,10.74-30.94q13.56-17.25,36.36-17.28,23.45,0,37.47,17.72,9.95,12.47,10.13,31.18H558.13q.35,15.88,10.21,26A32.78,32.78,0,0,0,592.76,259a39.59,39.59,0,0,0,13.66-2.41,35.88,35.88,0,0,0,11.28-6.4c3.1-2.67,6.46-6.94,10-12.88Zm.12-24.63c-1.58-6.28-3.87-11.27-6.89-15a32.73,32.73,0,0,0-12-9.07,37,37,0,0,0-15.64-3.44,33.78,33.78,0,0,0-23.27,8.64c-4.77,4.22-8.33,10.5-10.77,18.9Zm35.91-70.59h11.71v34.1h18.59v10.15H675.48v81.27H663.77V186.32h-16V176.17h16v-34.1ZM711,176.17h67.32l-51.82,80.92h50.1v10.5H706.22l52-81.27H711V176.17Zm106.35,0v10A43,43,0,0,1,830.82,177a39.34,39.34,0,0,1,15.47-3.08q17.87,0,30.39,13.49t12.51,34.64q0,20.35-12.94,34.07T845.6,269.83A38.36,38.36,0,0,1,830.91,267a44.31,44.31,0,0,1-13.52-9.22V301h-22.9V176.17Zm24.05,18.76a23.91,23.91,0,0,0-17.94,7.38c-4.76,4.94-7.14,11.36-7.14,19.31q0,12.18,7.14,19.68a23.63,23.63,0,0,0,17.94,7.52,23.33,23.33,0,0,0,17.67-7.63q7.2-7.66,7.18-19.49t-7.06-19.25a23.28,23.28,0,0,0-17.79-7.52Zm61.09-18.76h19.8v11.62a24.81,24.81,0,0,1,8.44-10.34,20.4,20.4,0,0,1,11.54-3.53,21.33,21.33,0,0,1,9.29,2.36l-7.11,19.8a15.52,15.52,0,0,0-6.6-2c-3.5,0-6.49,2.18-8.9,6.54s-3.65,12.92-3.65,25.66l.09,4.44v36.88h-22.9V176.17ZM1005,173.92a48.75,48.75,0,0,1,24.36,6.46,47.24,47.24,0,0,1,24.22,41.41,47.89,47.89,0,0,1-6.43,24.13,46.48,46.48,0,0,1-17.56,17.56,48.63,48.63,0,0,1-24.51,6.35,45.78,45.78,0,0,1-33.63-13.94,46.3,46.3,0,0,1-14-33.93q0-21.39,15.76-35.64,13.82-12.4,31.74-12.4Zm.34,21.53a23.6,23.6,0,0,0-17.82,7.41q-7.11,7.42-7.12,19,0,11.88,7,19.25a23.57,23.57,0,0,0,17.82,7.38,23.92,23.92,0,0,0,17.94-7.46q7.14-7.46,7.14-19.17c0-7.84-2.35-14.18-7-19.08s-10.67-7.32-18-7.32Zm133.57-54.58h22.9V267.59h-22.9v-9.73a44.72,44.72,0,0,1-13.49,9.16,38.1,38.1,0,0,1-14.66,2.81q-17.77,0-30.71-13.71t-12.94-34.07q0-21.13,12.54-34.64t30.42-13.49a39.23,39.23,0,0,1,15.47,3.08,42.59,42.59,0,0,1,13.37,9.27v-45.4Zm-24.13,54.06a23.18,23.18,0,0,0-17.71,7.52q-7.07,7.49-7.06,19.25t7.18,19.49a23.33,23.33,0,0,0,17.67,7.63,23.61,23.61,0,0,0,17.93-7.52q7.15-7.49,7.15-19.68c0-8-2.38-14.37-7.15-19.31a24,24,0,0,0-18-7.38Zm66.4-18.76h23.24v44q0,12.84,1.78,17.83a15.64,15.64,0,0,0,5.68,7.77,16.43,16.43,0,0,0,9.68,2.76,17.09,17.09,0,0,0,9.75-2.72,15.91,15.91,0,0,0,5.94-8c.94-2.65,1.43-8.27,1.43-16.88v-44.7h22.9v38.68q0,23.93-3.78,32.74a35.73,35.73,0,0,1-13.64,16.5c-6,3.81-13.63,5.74-22.86,5.74-10,0-18.14-2.24-24.34-6.72a35.41,35.41,0,0,1-13.08-18.7q-2.72-8.31-2.7-30.22v-38Zm95.81,0h70.08l-41.18,72h38.77v19.46h-74l41.18-72H1277V176.17Zm176.32,52.17h-73.6a24.87,24.87,0,0,0,8.48,15.58c4.6,3.84,10.48,5.77,17.6,5.77a30.32,30.32,0,0,0,22-9l19.23,9.09a45.76,45.76,0,0,1-17.25,15.18c-6.72,3.28-14.66,4.91-23.88,4.91q-21.44,0-34.92-13.55t-13.49-33.89q0-20.87,13.49-34.66t33.8-13.81q21.57,0,35.1,13.75T1453.4,224l-.09,4.34Zm-22.81-17.91a22.68,22.68,0,0,0-9-12.19,26.38,26.38,0,0,0-15.56-4.69,27.81,27.81,0,0,0-16.84,5.29q-4.53,3.27-8.41,11.59Zm40.56-34.26H1494v9.41a55.13,55.13,0,0,1,14.15-9.1,34.46,34.46,0,0,1,13-2.56,31.44,31.44,0,0,1,23.1,9.48q8,8.08,8,23.85v60.34h-22.73v-40q0-16.37-1.46-21.7a14.89,14.89,0,0,0-5.11-8.17,14.4,14.4,0,0,0-9-2.82,17,17,0,0,0-12,4.65c-3.33,3.1-5.63,7.41-6.91,12.85-.67,2.88-1,9-1,18.54v36.62h-22.9V176.17Zm102.36-33.75h22.9v33.75h13.6V196h-13.6v71.63h-22.9V196h-11.7V176.17h11.7V142.42Zm139.42,85.92h-73.6a24.88,24.88,0,0,0,8.49,15.58c4.6,3.84,10.48,5.77,17.59,5.77a30.32,30.32,0,0,0,22-9l19.23,9.09a45.84,45.84,0,0,1-17.25,15.18q-10.07,4.92-23.87,4.91-21.43,0-34.92-13.55T1617,222.39q0-20.87,13.49-34.66t33.8-13.81q21.56,0,35.09,13.75T1712.93,224l-.09,4.34ZM1690,210.43a22.68,22.68,0,0,0-9-12.19,26.38,26.38,0,0,0-15.56-4.69,27.81,27.81,0,0,0-16.84,5.29c-3,2.18-5.83,6-8.41,11.59Zm37.79-34.26h22.9v9.41a55.3,55.3,0,0,1,14.15-9.1,34.46,34.46,0,0,1,13-2.56,31.44,31.44,0,0,1,23.1,9.48q8,8.08,8,23.85v60.34h-22.73v-40q0-16.37-1.46-21.7a14.89,14.89,0,0,0-5.11-8.17,14.42,14.42,0,0,0-9-2.82,17,17,0,0,0-12,4.65c-3.32,3.1-5.62,7.41-6.92,12.85-.65,2.88-1,9-1,18.54v36.62h-22.9V176.17Z" transform="translate(-11.23 -13.45)" fill="#092737" stroke-width="1px" fill-opacity="1" stroke-opacity="1"></path><path class="cls-2" d="M1909.43,147.86c0,22.38-17.57,39.94-40.42,39.94-22.62,0-40.66-17.56-40.66-39.94,0-21.89,18-39.45,40.66-39.45C1891.86,108.41,1909.43,126,1909.43,147.86Zm-71,0c0,17.57,13,31.52,30.8,31.52,17.32,0,30.07-13.95,30.07-31.27,0-17.57-12.75-31.76-30.31-31.76S1838.45,130.54,1838.45,147.86Zm24.3,20.69h-9.14V129.1a80.11,80.11,0,0,1,15.16-1.2c7.45,0,10.82,1.2,13.71,2.88a11,11,0,0,1,3.85,8.66c0,4.33-3.37,7.7-8.18,9.15v.48c3.85,1.44,6,4.33,7.22,9.62,1.2,6,1.92,8.42,2.88,9.86h-9.86c-1.2-1.44-1.92-5.05-3.13-9.62-.72-4.33-3.12-6.25-8.18-6.25h-4.33Zm.24-22.37h4.33c5.06,0,9.15-1.68,9.15-5.77,0-3.61-2.65-6-8.42-6a22,22,0,0,0-5.06.48Z" transform="translate(-11.23 -13.45)" fill="#092737" stroke-width="1px" fill-opacity="1" stroke-opacity="1"></path><polygon class="cls-1" points="136.82 46.33 280.54 46.33 280.54 190.04 136.82 46.33 136.82 46.33" fill="#092737" stroke-width="1px" fill-opacity="1" stroke-opacity="1"></polygon><polygon class="cls-2" points="64.03 324.81 0 324.81 0 0 279.54 279.54 279.54 370.08 64.03 154.58 64.03 324.81" fill="#092737" stroke-width="1px" fill-opacity="1" stroke-opacity="1"></polygon></svg>